<?xml version="1.0" encoding="utf-8"?>
<!-- Generator: Adobe Illustrator 22.1.0, SVG Export Plug-In . SVG Version: 6.00 Build 0)  -->
<svg version="1.1" xmlns="http://www.w3.org/2000/svg" xmlns:xlink="http://www.w3.org/1999/xlink" x="0px" y="0px"
	 viewBox="0 0 480.9 289.7" style="enable-background:new 0 0 480.9 289.7;" xml:space="preserve">
<g id="Square">
</g>
<g id="Round">
	<g>
		<g>
			<path d="M240.5,100.8c-1.5,1.6-2.7,3-4,4.3c-2.2,2.1-3.1,4.5-2.5,7.8c0.6-0.5,1.1-0.8,1.4-1.3c2.2-2.9,4.6-5.8,6.6-8.9
				c3.8-5.9,8-11.5,12.8-16.7c3.3-3.5,6.9-6.5,11.7-7.8c5.1-1.4,10.1-0.5,14.9,1.4c0.5,0.2,0.9,0.8,1.1,1.2
				c3.2,6.8,6.5,13.6,9.6,20.5c1.7,3.8,3.3,7.6,5,11.6c0.7-0.4,1.2-0.7,1.7-1c5.6-3.1,11-6.5,16.8-9.4c18.7-9.3,38.4-3.5,51.1,7.9
				c0.1,0.1,0.3,0.3,0.5,0.5c-2,0.9-4,1.1-6,1c-4-0.1-7.6-1.5-11.1-3.2c-1.3-0.6-2.6-1.2-3.8-2c-1.7-1.2-3.6-1.5-5.7-1.5
				c-6.2,0-12,1.6-17.4,4.7c-4.2,2.4-8.3,5.1-12.4,7.7c-1.8,1.2-3.6,2.4-5.5,3.5c-5.4,3.3-11.1,3.5-16.9,1.2c-2.4-0.9-4.1-2.2-5-4.7
				c-2.4-6.2-4.9-12.5-7.4-18.6c-1.4-3.4-3.2-6.8-4.9-10.4c-1.4,1.2-2.5,2-3.5,3c-4.4,4.2-7.8,9.3-11.4,14.2
				c-4,5.7-8,11.3-12.1,16.9c-1.1,1.4-2.4,2.7-3.6,4c-4.6,4.7-10.2,5.8-16.3,3.8c-1.5-0.5-2.9-1.3-4.4-1.9c-1.4-0.6-1.9-1.6-2.1-3
				c-0.7-5.6-0.1-11.2,0.5-16.8c0.2-1.6,0.3-3.3,0.5-5.1c-19-2.4-38-1.5-57.1-2.5c0.7,4.6,1.5,8.9,2,13.3
				c1.2,12.8,2.6,25.7,3.4,38.6c1.5,23.2,1.5,46.5,1,69.7c-0.3,16.7-1,33.4-1.5,50.1c-0.1,3.6-0.1,7.2-0.4,10.8
				c-0.1,2.1-0.9,4.1-2.6,5.5c-0.3,0.3-0.8,0.5-1.2,0.4c-3-0.8-6-1.8-9-2.6c-1.6-0.4-2.4-1.1-2.5-2.9c-1.1-14-2.7-28.1-3.4-42.1
				c-1.4-27.7-2.4-55.5-3.6-83.2c-0.8-18.3-2-36.7-4.2-54.9c-0.1-0.6-0.2-1.2-0.2-1.8c-0.2-0.1-0.4-0.2-0.6-0.2
				c-12.6,0.1-25.1,0.2-37.7,0.3c-1.3,0-2.6,0.3-4,0.5c-3.5,0.3-6.2,2-8.2,4.8c-3.3,4.5-6.6,8.9-9.6,13.6
				c-12.6,20.1-28.4,37.3-45.9,53.1c-4.2,3.8-9,7-14.4,9.1c-5.8,2.2-11.7,2.3-17.5-0.1C1,183,0.5,182.8,0,182.5
				c0.2-0.2,0.3-0.3,0.4-0.3c9.9-2.2,18.2-7.4,25.8-13.9c7.5-6.5,13.9-14,20.5-21.3c11-12.1,20.4-25.5,29.2-39.2
				c0.1-0.2,0.3-0.5,0.6-1.1c-2.8,0.4-5.3,0.7-7.8,1.1c-5.2,0.8-10.3,1.7-15.5,2.3c-5,0.6-10,0.2-14.6-2.1c-0.7-0.3-1.3-0.7-2.2-1.3
				c2.2-1.7,4.1-3.5,6.3-4.8c4.5-2.6,9-5.1,13.7-7.2c11.9-5.2,23.9-10.2,35.9-15.3c0.6-0.3,1.2-0.9,1.6-1.5
				c8-13.9,15.1-28.2,21.8-42.7c3.8-8.3,7.4-16.7,11.3-24.9c1.5-3.2,3.7-6.2,5.6-9.2c0.7-1.1,1.6-1.4,2.9-1c2.9,0.8,5.8,1.5,8.8,2.3
				c0.1,2.3,0.3,4.6,0.4,7c1,17.5,3.4,34.8,5.8,52.2c0.7,5.2,0.9,10.4,1.4,15.6c0.3,2.8,0.8,5.6,1.4,8.4c0.4,1.6,1.1,3.2,1.9,4.7
				c1.4,2.8,3.3,4.2,6.9,4.2c14.2,0,28.5,0.3,42.7,0.9c11.4,0.4,22.7,1.8,33.8,4.7C239,100.3,239.5,100.5,240.5,100.8z M131.6,29.8
				c-0.2,0-0.3,0-0.5,0c-7.7,15.5-15.3,31.1-23.1,46.8c10-1.9,19.6,0.6,29.3,1.9c-0.4-3.4-0.9-6.6-1.2-9.8
				c-0.9-9.6-1.6-19.3-2.6-28.9C133.2,36.4,132.2,33.1,131.6,29.8z M97.4,95.7c13.8-2,27.6-0.3,41.1-1.8c0.4-4.1-1.7-7.4-5.6-8.9
				c-3.3-1.3-6.8-1.6-10.2-1.3c-6.5,0.7-13,1.8-19.6,2.7c-0.3,0-0.8,0.2-1,0.5c-1.4,2-2.7,4.1-4,6.2C97.8,93.8,97.7,94.7,97.4,95.7z
				 M84.4,94.1c-2.6-0.2-6.5,1.6-7.4,3.4C81.1,98.3,83.7,97,84.4,94.1z"/>
		</g>
		<g>
			<path d="M227.4,200.6c-3.4,1.4-7.7,2.1-12.9,2.1c-6,0-11.1-2.1-15.3-6.4c-4.2-4.2-6.3-9.4-6.3-15.5c0-6.1,1.9-11.2,5.6-15.4
				c3.7-4.2,8.5-6.3,14.3-6.3c4.9,0,10,0.8,15.4,2.4l0.9-2.7c-5.5-1.8-10.9-2.7-16.3-2.7c-6.8,0-12.4,2.4-16.8,7.1
				c-4.4,4.8-6.6,10.6-6.6,17.5c0,6.9,2.4,12.8,7.2,17.6c4.8,4.8,10.7,7.2,17.7,7.2c7,0,12.4-1.2,16.3-3.6v-21.2h-3.2V200.6z"/>
			<path d="M354.1,160c-2.8-2.2-6.6-3.3-11.3-3.3c-3.5,0-7.1,0.2-10.8,0.5v47.6h3.2v-45c2.7-0.2,5-0.3,7-0.3c3.8,0,6.9,0.8,9.2,2.5
				c2.3,1.7,3.4,4.4,3.4,8.1c0,3.7-1.6,6.8-4.9,9.1c-3.3,2.3-7.1,3.5-11.5,3.5c-0.1,0-0.3,0-0.5,0v2.2c0.3,0,0.5,0,0.7,0
				c5.4,0,10-1.4,13.8-4.3c3.9-2.8,5.8-6.5,5.8-10.9S356.9,162.2,354.1,160z"/>
			<polygon points="404.4,178 371.5,178 371.5,157 368.3,157 368.3,204.9 371.5,204.9 371.5,180.9 404.4,180.9 404.4,204.9 
				407.6,204.9 407.6,157 404.4,157 			"/>
			<rect x="424" y="157" width="3.2" height="47.9"/>
			<path d="M479.9,200.3c-3.8,1.6-8.4,2.4-13.7,2.4c-6,0-11.2-2.1-15.5-6.4c-4.3-4.3-6.5-9.4-6.5-15.5s1.9-11.2,5.6-15.4
				c3.7-4.2,8.5-6.3,14.3-6.3c4.9,0,10,0.8,15.4,2.4l0.9-2.7c-5.5-1.8-10.9-2.7-16.3-2.7c-6.8,0-12.4,2.4-16.8,7.1
				c-4.4,4.8-6.6,10.6-6.6,17.6c0,7,2.5,12.9,7.5,17.6c5,4.8,11,7.1,17.9,7.1c2.6,0,5.3-0.3,8-0.8c2.7-0.5,5-1.3,6.7-2.3
				L479.9,200.3z"/>
			<path d="M248.1,182.9l0-0.3v-22.7c2.7-0.2,5-0.3,7-0.3c3.8,0,6.8,0.9,9.1,2.6c2.3,1.8,3.4,4.4,3.4,7.8c0,3.4-1.1,6.4-3.3,9
				c-2.1,2.4-4,3.7-5.9,3.9h-7.7l0,2.7l9.2,0c6.1,8.4,9.9,13.4,11.5,15c1.5,1.6,3.2,2.8,4.9,3.6c1.7,0.8,3.9,1.2,6.6,1.2l7.2-17.1
				h21.4l6.9,16.6h3.6l-20.2-48.2H300l-19.3,46.1c-2.5-0.7-4.9-2.2-7-4.5c-0.7-0.8-2.3-2.8-4.7-5.9c-2.4-3.1-4.5-5.9-6.1-8.1
				c2.1-1.5,4-3.5,5.7-6c1.7-2.5,2.5-5.2,2.5-8.1c0-4.3-1.5-7.6-4.4-9.9c-2.9-2.3-6.7-3.5-11.3-3.5c-2.9,0-6.4,0.2-10.6,0.5v47.7
				h3.2v-19.3L248.1,182.9z M291.6,185.4l9.3-22.4l9.4,22.4H291.6z"/>
		</g>
		<g>
			<path d="M248.1,244.3h-13.8v11.8h15.8v2H232v-28.6h18v2h-15.7v10.7h13.8V244.3z"/>
			<path d="M271.6,251.1c0-1.6-0.6-2.8-1.7-3.8c-1.2-1-3.2-1.9-6.1-2.6c-3.1-0.8-5.5-1.8-7.1-3.1s-2.4-3-2.4-5.1
				c0-2.2,0.9-4,2.7-5.3c1.8-1.4,4.1-2.1,6.9-2.1c2.9,0,5.3,0.8,7.1,2.5c1.8,1.6,2.7,3.6,2.6,6l-0.1,0.1h-2.2c0-1.9-0.7-3.5-2-4.7
				c-1.4-1.2-3.2-1.8-5.5-1.8c-2.3,0-4.1,0.5-5.4,1.5c-1.3,1-1.9,2.3-1.9,3.8c0,1.4,0.6,2.6,1.8,3.6c1.2,1,3.2,1.8,6.2,2.5
				c3.1,0.8,5.4,1.8,7,3.2c1.6,1.3,2.4,3.1,2.4,5.3c0,2.3-0.9,4.1-2.8,5.4c-1.9,1.3-4.2,2-7.1,2c-2.9,0-5.3-0.7-7.5-2.1
				c-2.1-1.4-3.2-3.5-3.1-6.3l0-0.1h2.2c0,2.2,0.8,3.9,2.5,4.9c1.7,1.1,3.6,1.6,5.9,1.6c2.3,0,4.1-0.5,5.5-1.5
				C270.9,254,271.6,252.7,271.6,251.1z"/>
			<path d="M298.6,231.5h-9.8v26.6h-2.4v-26.6h-9.8v-2h22V231.5z"/>
			<path d="M316.1,229.5l10.5,25.2h0.1l10.5-25.2h3.1v28.6H338v-12.6l0.2-12.5l-0.1,0l-10.6,25.2h-1.6l-10.6-25.1l-0.1,0l0.2,12.4
				v12.6H313v-28.6H316.1z"/>
			<path d="M350.9,229.5l10.5,25.2h0.1l10.5-25.2h3.1v28.6h-2.3v-12.6l0.2-12.5l-0.1,0l-10.6,25.2h-1.6l-10.6-25.1l-0.1,0l0.2,12.4
				v12.6h-2.3v-28.6H350.9z"/>
			<path d="M391.6,241.7l8.1-12.2h2.8l-9.5,14.1l9.8,14.5H400l-8.4-12.6l-8.4,12.6h-2.8l9.8-14.5l-9.5-14.1h2.8L391.6,241.7z"/>
			<path d="M410.6,258.1h-2.4v-28.6h2.4V258.1z"/>
			<path d="M426.6,253.3l0.6,1.9h0.1l0.6-1.9l8.6-23.8h2.6l-10.7,28.6h-2.2l-10.7-28.6h2.6L426.6,253.3z"/>
		</g>
	</g>
</g>
</svg>
