<?xml version="1.0" encoding="utf-8"?>
<!-- Generator: Adobe Illustrator 21.0.2, SVG Export Plug-In . SVG Version: 6.00 Build 0)  -->
<svg version="1.1" id="Layer_1" xmlns="http://www.w3.org/2000/svg" xmlns:xlink="http://www.w3.org/1999/xlink" x="0px" y="0px"
	 viewBox="0 0 218.3 149.9" style="enable-background:new 0 0 218.3 149.9;" xml:space="preserve">
<style type="text/css">
	.st0{fill:#FFFFFF;}
</style>
<g>
	<g>
		<g>
			<path class="st0" d="M28.4,60.7C14.6,69,0,79.5,0,79.5v18.8l61-42.1c-3.6,6-4.6,13.5-2.5,21.2c4.5,16.6,19,72.5,19,72.5h32.6
				v-18.5L82.7,42.2l135.4,79l0-24.4L81.9,40.7L0,65.2v5.5L28.4,60.7z M77,43.4L15.2,78c11.7-13.1,24-20.8,35.3-25.1L77,43.4z
				 M81.3,42.1l0.1,61.8C74.6,92.8,68.6,82.2,66,75.9c-3.4-8.1-5.3-19.2,4.8-26.5L81.3,42.1z"/>
		</g>
	</g>
	<path class="st0" d="M73.2,8c-6,0-9.1,3.1-9.1,9c0,6.7,3.9,10.6,10.6,10.6c2.6,0,4.3-0.4,6.1-1l0.3-0.1v-2.7L80.4,24
		c-1.2,0.5-2.4,0.7-3.7,0.7c-5.2,0-7.2-4.3-7.4-8.1c0.2,0,12.1,0,12.1,0v-0.5C81.4,10.9,78.5,8,73.2,8z M69.5,14
		c0.3-1.4,1-3.5,3.5-3.5c2.6,0,3.1,2.4,3.2,3.5H69.5z M10.5,8c-2.8,0-4.4,1.2-5.3,2.2c0-0.5,0-9.8,0-9.8H0v17
		c0,5.1,1.1,10.3,9.1,10.3c6.1,0,9.5-3.6,9.5-10C18.6,11.4,15.7,8,10.5,8z M9.1,25.1c-2.6,0-3.7-2.3-3.7-7.8c0-4.2,1.2-6.3,3.7-6.3
		c3.4,0,3.9,4.1,3.9,6.5C13,20.4,12.5,25.1,9.1,25.1z M54.6,8c-1.9,0-4.6,0.6-6.7,3.6c0-0.5,0-3.2,0-3.2h-5.2v18.8h5.2v-7.9
		c0-2.4,1.2-7.6,5-7.6c1.5,0,2.1,1.1,2.1,3.8v11.7h5.2V13.7C60.2,10.8,58.5,8,54.6,8z M28.9,8c-1.6,0-4,0.5-5.1,0.9L23.4,9v3.1
		l0.7-0.3c1.8-0.9,3.3-1.3,4.8-1.3c3.1,0,3.3,3.3,3.3,3.9c0,0,0,0.7,0,0.9c-2.8,0.2-11.3,1.2-11.3,7c0,2.6,2.1,5.4,6,5.4
		c2.6,0,4.3-1.1,5.3-2.1c0,0.4,0,1.7,0,1.7h5.2v-12C37.4,10.3,34.6,8,28.9,8z M32.2,20.5c0,2.7-2.4,3.9-3.7,3.9c-1.3,0-2-0.9-2-2.6
		c0-3.1,4.8-3.8,5.7-3.9C32.2,18,32.2,20.5,32.2,20.5z M96.5,11.3c-0.9-2.2-2.7-3.3-5.1-3.3c-5,0-6.7,5.2-6.7,10
		c0,6.4,2.3,9.7,6.8,9.7c3,0,4.6-2,5.1-3.4c0,0.5,0,3,0,3h3V0h-3C96.5,0,96.5,10.8,96.5,11.3z M92,25.2c-2.6,0-4-2.3-4-6.8
		c0-3.7,0.7-8.1,4.1-8.1c3.1,0,4.4,3.8,4.4,7.5C96.5,20.7,95.3,25.2,92,25.2z M195.2,11.8c0-0.4,0-3.4,0-3.4h-3v18.8h3v-7.8
		c0-5.3,2.4-8.4,6.5-8.4h0.1v-3h-0.1C197.3,7.9,195.8,10.6,195.2,11.8z M179.4,7.9c-2.4,0-3.6,0.4-5.4,1.1l-0.1,0l0,0.1l0,2.9
		l0.1-0.1c1.5-0.9,3.1-1.6,5.4-1.6c1.3,0,3,0.4,3.5,2.5c0.1,0.6,0.1,1.6,0.1,2.4c-0.2,0-1.8,0.1-1.8,0.1c-4.6,0.3-9.4,2.3-9.4,6.9
		c0,3.3,2,5.3,5.4,5.3c3.4,0,5.3-1.8,6-2.8c0,0.3,0,2.4,0,2.4h2.9V14C186.1,11.4,185.4,7.9,179.4,7.9z M182.4,22.4
		c-0.8,1.6-2.6,2.8-4.5,2.8c-1.5,0-2.7-1.3-2.7-3c0-3,3.9-4.4,6.3-4.5c0,0,1.2-0.1,1.5-0.1C183.1,19.7,182.9,21.3,182.4,22.4z
		 M210.4,16.7c0.1-0.1,7.1-8.4,7.1-8.4h-3.7c0,0-6.6,7.6-6.7,7.8c0-0.3,0-16.2,0-16.2h-3v27.2h3c0,0,0-9.5,0-9.9
		c0.2,0.2,7.5,9.9,7.5,9.9h3.7C218.3,27.2,210.5,16.8,210.4,16.7z M207.1,16.3L207.1,16.3L207.1,16.3L207.1,16.3z M162.9,7.9
		c-3.6,0-5.1,3-5.6,4.1c-0.3-2.7-2.1-4.1-5-4.1c-3.8,0-5,3-5.5,4.5c0-0.6,0-4,0-4h-3v18.8h3v-7.8c0-3.5,1.7-8.6,4.8-8.6
		c2.8,0,2.8,2.8,2.8,6v10.4h3v-7.8c0-3.5,1.7-8.6,4.8-8.6c2.8,0,2.8,2.8,2.8,6v10.4h3V13.8C168,10.9,166.5,7.9,162.9,7.9z
		 M110.9,7.9c-2.4,0-3.6,0.4-5.4,1.1l-0.1,0l0,0.1l0,2.9l0.1-0.1c1.5-0.9,3.1-1.6,5.4-1.6c1.3,0,3,0.4,3.5,2.5
		c0.1,0.6,0.1,1.6,0.1,2.4c-0.2,0-1.8,0.1-1.8,0.1c-4.6,0.3-9.4,2.3-9.4,6.9c0,3.3,2,5.3,5.4,5.3c3.4,0,5.3-1.8,6-2.8
		c0,0.3,0,2.4,0,2.4h2.9V14C117.5,11.4,116.8,7.9,110.9,7.9z M113.8,22.4c-0.8,1.6-2.6,2.8-4.5,2.8c-1.5,0-2.7-1.3-2.7-3
		c0-3,3.9-4.4,6.3-4.5c0,0,1.2-0.1,1.5-0.1C114.5,19.7,114.3,21.3,113.8,22.4z M132.7,7.9c-4.2,0-5.6,3-6.1,4.5c0-0.5,0-4.1,0-4.1
		h-3v18.8h3v-7.8c0-3.5,1.9-8.6,5.5-8.6c2.8,0,2.8,2.8,2.8,6v10.4h3V13.8C137.9,10.9,136.3,7.9,132.7,7.9z"/>
</g>
</svg>
