<svg id="Layer_1" data-name="Layer 1" xmlns="http://www.w3.org/2000/svg" viewBox="0 0 71.87 105.58"><defs><style>.cls-1{fill:none;stroke:#fff;stroke-linecap:round;stroke-linejoin:round;stroke-width:2px;}</style></defs><title>F</title><path class="cls-1" d="M386,6.46a5.63,5.63,0,0,0,3.33-2,26.56,26.56,0,0,0-4.83,7.5l7.56-6.23L384.3,18.49,396.43,6.81a61.77,61.77,0,0,0-11.2,14.61L401.1,5.65,384.57,28.3a129.33,129.33,0,0,1,18.07-16.62q-9.18,10.67-17.47,22.08l16.72-16.09Q393,29,385,41.07l15.4-14.9A134.85,134.85,0,0,1,384.8,47l17.66-15.27L388,50.34l12.51-11.78L386.36,57.37,400,45.14,384,65.38l16.75-15.07A164,164,0,0,0,386,70l16.32-15.41L387.69,74.23,401.78,59,385.71,82.33l12.9-12.69L388.14,87.41l12.21-13.29L387.93,94.83l13.38-14.46a158.71,158.71,0,0,1-15.37,21.89l14.14-13.79a80.67,80.67,0,0,1-9.35,14.23,30.76,30.76,0,0,0,9.45-8.1,49.88,49.88,0,0,1-5.42,10.11l7-6.26-4.26,8.47,3.69-3c.26-.21.63-.43.91-.24s-.19.73-.3.41" transform="translate(-382.98 -2.34)"/><path class="cls-1" d="M407.58,5A33.9,33.9,0,0,0,404.13,14l9.27-8.24-6.83,12.68L421.4,3.34A39.52,39.52,0,0,1,414.64,17c1.87-.11,3.27-1.71,4.43-3.18l8-10.14a75.5,75.5,0,0,1-8.69,13.2c1.89-.05,3.4-1.51,4.71-2.87l8.49-8.86-6.31,13.56L436.12,7.06,430.24,20c5.53-3.63,6.91-11.87,12.82-14.82l-7.3,15.64L448.87,4.88l-5.4,11.59a59.9,59.9,0,0,0,9-9.62L447,17.79a22,22,0,0,0,6.37-7.39,2.56,2.56,0,0,1-.54,3.43" transform="translate(-382.98 -2.34)"/><path class="cls-1" d="M405.44,53.48l-3,7.67,9.74-10.41a101.19,101.19,0,0,1-5.67,11.92l11.1-11.06a78.23,78.23,0,0,1-5,10.87c3.73-4.47,7.5-9,12-12.64l-6.44,13.7c3.74-4.87,7.53-9.79,12.33-13.62L425,62a78.15,78.15,0,0,0,8.56-11.91L428,64.55c4.85-4.41,6.69-11.91,12.53-14.88L435.7,60.52,442,52a79.19,79.19,0,0,1-4.19,10.3l7-9.43-4.05,10.69a14.18,14.18,0,0,0,4.54-6.41l.29,5.29" transform="translate(-382.98 -2.34)"/></svg>