<svg id="Layer_1" data-name="Layer 1" xmlns="http://www.w3.org/2000/svg" viewBox="0 0 307.57 56.61"><defs><style>.foss-path{fill:#fff;}</style></defs><title>FOSS_logo</title><path class="foss-path" d="M0,.69H59.81V11.85H22.66V23h28.7V33.78H22.66V55.36H0Z"/><path class="foss-path" d="M109.71.05c28,0,42.64,10.73,42.64,28.28,0,17.39-14.86,28.27-42.64,28.27S67.08,45.72,67.08,28.33C67.08,10.79,81.69.05,109.71.05Zm0,45.74c13.77,0,19.25-8.46,19.25-17.46,0-9.48-5.48-17.47-19.25-17.47s-19.25,8-19.25,17.47C90.46,37.34,95.94,45.8,109.71,45.8Z"/><path class="foss-path" d="M191.66,45.66a100.41,100.41,0,0,1-23.14-3V53.87a103.55,103.55,0,0,0,23,2.58c18.88.17,37.45-3.5,37.58-17.68.17-19.74-40-15-40-23,0-4.78,9.55-5,15.27-5a88.12,88.12,0,0,1,20.37,2.66V2.23A108.8,108.8,0,0,0,202.92,0c-17.05-.15-37.06,3.28-37.17,16.44-.18,19.89,40,14,40,24,0,4.39-6.88,5.27-14.07,5.21Z"/><path class="foss-path" d="M270.09,45.66a100.41,100.41,0,0,1-23.14-3V53.87a103.64,103.64,0,0,0,23,2.58c18.88.17,37.46-3.5,37.58-17.68.17-19.74-40-15-40-23,0-4.78,9.55-5,15.27-5a88.11,88.11,0,0,1,20.37,2.66V2.23A108.8,108.8,0,0,0,281.35,0c-17.06-.15-37.06,3.28-37.18,16.44-.17,19.89,40,14,40,24,0,4.39-6.88,5.27-14.07,5.21Z"/></svg>
