<svg xmlns="http://www.w3.org/2000/svg" id="Layer_1" data-name="Layer 1" viewBox="0 0 100 100"><defs><style>.cls-1{fill:none;stroke:#000;stroke-linecap:round;stroke-linejoin:round;stroke-width:2.7px;}</style></defs><path d="M49.76 9.9L21.89 41a119.15 119.15 0 0 1 33.73-23.2L28.71 43.65l35.76-23.56-36.1 30.31c-5.2 4.37-10.6 9-13.05 15.34L33.2 51.16c12.81-10.44 25.84-21 41-27.5q-24.73 20.5-48.59 42C41.1 58.26 52.82 43.4 69.47 39.2L20.26 78.81c-2 1.62-4.25 3.88-3.53 6.36L68.93 49c-9.85 11.61-22.06 20.93-34.17 30.16a246.59 246.59 0 0 1 39.35-24.39L32.53 88.39 67.73 69a322.16 322.16 0 0 1-26.86 26.22 184.87 184.87 0 0 1 37.79-23.61L50.79 96a122.18 122.18 0 0 1 19.35-11.69 16.94 16.94 0 0 1-5.25 7.42 17.3 17.3 0 0 1 6.87-.32" class="cls-1"/></svg>