<svg xmlns="http://www.w3.org/2000/svg" id="Layer_1" data-name="Layer 1" viewBox="0 0 100 100"><defs><style>.cls-1{fill:#fff;}</style></defs><path d="M55.72 9.15c-.26 10-.42 19.93-.6 29.9 0 .47 1.14 1.39 1.14 1.19.27-10.55.47-21.1.75-31.65 0-.39-1.12-1.62-1.2-1.25a77.39 77.39 0 0 0-1 28.23c.05.35 1.34 1.74 1.39 1.33a58 58 0 0 0-.13-15.52 58.15 58.15 0 0 0-1.7-7.77c-.37-1.27-1.12-2.91.11-3.89 1-.84 3.25-1 4.56-1.23 11-2 22.47-2.51 33.62-3.66l-1.14-1.74a255.64 255.64 0 0 1-33.74 2.19L59 7c11.32-.9 22.44-.37 33.74.3.32 0-.55-1.45-1-1.52-11.2-1.61-22.74-1.39-33.96-.5C57.35 5.31 58.42 7 59 7a253.78 253.78 0 0 0 33.7-2.18c.43-.06-.63-1.79-1.17-1.73L73.48 5c-5.77.6-11.68.91-17.35 2.15-1.83.4-3.86.68-3.72 3s1.26 4.62 1.72 6.83a58.06 58.06 0 0 1 .72 18.51l1.39 1.33A78.34 78.34 0 0 1 57 8.59l-1.2-1.25c-.2 10.57-.47 21.14-.68 31.72l1.14 1.19c.12-10.07.26-20.14.3-30.21 0-.34-.84-1-.84-.88z" class="cls-1"/><path d="M95.22 7.34c-.35 8.11-.51 16.23-.75 24.34L96 33.11a129.84 129.84 0 0 1-1.78-27.19l-1.46-1.26C95 11 95 17.8 95.2 24.43q.11 4.76.09 9.53c0 1.59 0 3.18-.05 4.77 0 1.27.29 2.28-1.77 2.23a7.8 7.8 0 0 1-2-.84c-10.8-4.23-22.71-3.64-34-2.35-.43 0 .63 1.79 1.18 1.75 12.91-1 25.88-1.26 38.82-1l-1.33-2c-12.19.28-24.62.78-36.06 5.44-.39.16.93 2 1.41 1.9A293 293 0 0 1 100.56 42c.35 0-.57-1.63-1.12-1.66A240.79 240.79 0 0 0 60.19 42l1.41 1.9c11.41-4.62 23.74-5 35.87-5.34.44 0-.69-2-1.33-2-12.92-.2-25.8.28-38.68 1.21l1.18 1.75a106.37 106.37 0 0 1 19.27-.65A53.85 53.85 0 0 1 88 40.54a42.64 42.64 0 0 1 4.91 1.66c.81.33 2.31 1.39 3.25.93s.72-1.85.74-2.65v-5.27q0-5.27-.17-10.53c-.2-6.45-.4-12.95-2.62-19.08-.09-.24-1.45-1.75-1.47-1.26a124.57 124.57 0 0 0 1.78 27.49c.08.43 1.51 1.81 1.51 1.44.13-8.25.34-16.5.36-24.75 0-.45-1.12-1.4-1.13-1.17zM4 59.55c-.4 10.65-.17 21.33-.26 32L5 92.75c-2.21-10-2.28-20.16-2.27-30.32 0-.55-1.35-1.68-1.36-1.42Q.9 78.14.41 95.26c0 .62 1.48 1.83 1.49 1.55.39-12 .82-24.08 1.1-36.13.06-2.47.4-3.11 3.09-3.74 1.39-.33 2.79-.61 4.19-.86 2.81-.51 5.64-.89 8.49-1.15a118.7 118.7 0 0 1 18-.16c.28 0-.49-1.39-1-1.44-11.58-1.09-22.7.54-34 2.83a.12.12 0 0 0-.13.11c-.71 13-.87 26-1.24 39l1.5 1.54.86-34.38L1.4 61c0 10.26.11 20.57 2.36 30.64C3.84 92 5 93.19 5 92.87c0-10.87.18-21.75-.3-32.6 0-.26-.69-.87-.69-.72z" class="cls-1"/><path d="M9.84 57.63c9.52.32 19.15 1.06 28.67.83L37.36 57c-1.27 7.29-1.91 14.26-.79 21.63.07.49 1.55 1.91 1.47 1.27-.93-7.18-1.84-14.37-.1-21.5l-1.44-1.47c0 5.7.06 11.4.11 17.1l.07 8.81v4.41c0 .42.22 1.61 0 2-.49.83-.65.46-1.52.36-2.4-.27-4.8-1.14-7.21-1.49a64.4 64.4 0 0 0-8.19-.66 67.34 67.34 0 0 0-16.3 1.8c-.47.11.64 1.63 1.1 1.62q20.67-.34 41.34-.73l-1.41-1.91c-9.54 3-20.86-.46-29.61 5.09-.4.26.9 1.81 1.31 1.76l1.64-.2c.42-.05-.61-1.65-1.11-1.64l-1.72.06 1.31 1.76c9.29-4.93 20-1.84 29.73-4.95.39-.12-.93-1.92-1.41-1.91q-20.56.51-41.13 1l1.1 1.62A64.23 64.23 0 0 1 38.07 92c.08 0 .31.09.3-.09q-.21-16.74-.44-33.47c0-.42-1.31-2-1.43-1.49-1.78 7.16-.95 14.51.06 21.73L38 79.92c-1.15-7-1.32-14.67.6-21.56.12-.44-.74-1.4-1.16-1.43-9.44-.63-19-.37-28.46-.51-.25 0 .41 1.19.82 1.21zM1.73 8.08C-.21 17.3 1 27.82 2.62 37c.07.39 1.27 1.45 1.26 1.2C3.41 27.92 2.63 17.43.53 7.35.47 7-.59 5.94-.53 6.43.62 16.64 2.07 26.72 2.62 37l1.25 1.08a103.4 103.4 0 0 1-1.73-14.93c-.19-4.81.2-9.57.26-14.37 0-.21-.62-.9-.67-.69zM3.17 6.09a181.18 181.18 0 0 1 34 1.53l-1.3-1.86c-4.52 1.1-9.46.47-14.07.37L6.93 5.8 8.2 7.67c10.43.11 21 .07 31.39-1.18.4 0-.58-1.58-1.06-1.56-10.54.37-21 1-31.6.88-.39 0 .63 1.85 1.26 1.87L23.08 8c4.59.1 9.56.76 14.05-.39.6-.15-.81-1.8-1.26-1.86a153.58 153.58 0 0 0-33.62-1c-.32 0 .48 1.36.91 1.34z" class="cls-1"/><path d="M40.47 3.09C39.08 8.76 38.6 14.76 38 20.56s-1 11.86-1.3 17.8l1.3 1.36c-.07-10.28.53-20.48 1.24-30.73 0-.39-1-1.32-1-1.07a226.29 226.29 0 0 0-1.54 30.44c0 .51 1.3 1.63 1.31 1.36q.41-8.94 1.25-17.86c.56-6 1.53-12 1.95-18 0-.24-.68-1-.74-.77z" class="cls-1"/><path d="M2 41.69c13.38 1.36 27.17.4 40.44-1.47l-1.37-2A194 194 0 0 1 4.67 40l1.14 1.68a129 129 0 0 0 22-1.67c.34-.06-.48-1.29-.85-1.26C19.5 39.31 12.12 40 4.67 40c-.37 0 .6 1.64 1.14 1.68a168.59 168.59 0 0 0 36.66-1.43c.51-.08-.73-2.11-1.37-2-13.31 2-26.51 2.19-39.94 2.21-.29 0 .47 1.23.86 1.27zM52.13 61.23a84.36 84.36 0 0 0 2 24.42c.07.3 1.14 1.37 1.14 1.09 0-9.12 0-18.24.11-27.37 0-.46-1.12-1.39-1.13-1.17-.29 9.1-.31 18.24-.13 27.34l1.14 1.09A106.4 106.4 0 0 1 52.83 62c0-.26-.68-.88-.69-.72zM52.72 57.37c14.58 0 29.15-.2 43.73-.25l-1-1.49c-1.62.16-3.23.31-4.84.53-.35 0 .51 1.4.93 1.38 1.64-.1 3.28-.26 4.92-.42.37 0-.55-1.49-1-1.49-14.41.14-28.84.3-43.23 1-.17 0 .27.76.51.76z" class="cls-1"/><path d="M95.42 55.43a123.26 123.26 0 0 0-1.78 31.79l1.24 1.07c-2.84-10-1.47-20.36-.19-30.53.06-.47-1.15-1.51-1.19-1.23-1.51 10.16-2.75 20.66.13 30.7.09.3 1.29 1.71 1.24 1.07a166.86 166.86 0 0 1 1.28-32.09c0-.28-.71-1-.75-.78z" class="cls-1"/><path d="M55.86 90.92c7.46.18 14.93.16 22.39.06 3.63 0 7.26-.14 10.89-.25s7.66.19 11.25-.59c.48-.1-.66-1.52-1.05-1.55-3.59-.35-7.36.13-11 .26-3.78.14-7.55.24-11.33.34-7.35.2-14.71.29-22.06.42-.29 0 .46 1.3.89 1.31z" class="cls-1"/><path d="M54.79 91.73c.21-5 .15-10 .15-14.94 0-.31-.74-.89-.74-.77 0 5.08 0 10.17.15 15.25 0 .16.44.55.44.46zM93.06 58.43C92.2 71 92 83.59 92.35 96.14c0 .3.75.93.76.79q.31-18.89.65-37.77c0-.27-.68-.87-.69-.72z" class="cls-1"/></svg>