<svg xmlns="http://www.w3.org/2000/svg" id="Layer_1" data-name="Layer 1" viewBox="0 0 100 100"><defs><style>.cls-1{fill:#fff;}</style></defs><path d="M14.68 39.84a390.08 390.08 0 0 0 1.52 55.8l1.46 1.26A469.77 469.77 0 0 1 13 39.65c0-.59-1.54-1.94-1.55-1.61-.88 19.48-.47 39.34 2.5 58.64.07.45 1.46 1.84 1.4 1.2-1.97-19.42-3.21-38.71-2.35-58.23L11.4 38a458.12 458.12 0 0 0 4.8 57.6c.07.47 1.53 1.92 1.46 1.26a449.79 449.79 0 0 1-2.29-56.33c0-.28-.69-.86-.69-.72z" class="cls-1"/><path d="M11.75 38.38C26.55 26.37 41 14 55.8 1.92c.4-.33-1.06-2.16-1.48-1.83C40.29 11 28.26 24.56 16.81 38l1.55 2c1.88-2.9 3.8-5.76 5.71-8.64.33-.5-1.19-2-1.38-1.7-2 2.81-3.89 5.64-5.87 8.43-.36.5 1.23 2.26 1.54 1.91 12-13.31 23.58-26.63 37.44-38L54.31.08c-14.4 12.49-29.1 24.65-43.46 37.19-.24.21.65 1.31.9 1.11z" class="cls-1"/><path d="M62 7.76C66.88 15 71.92 22 76.9 29.17l.15-.79c-9.49-6.82-14.9-17.89-24.89-24.16-.78-.49-.4.52-.16.85 8 11 20.45 17.75 27.36 29.56.31.53 2 2 1.32.56C74.42 22.74 61 16.17 53 5.12l-.15.88c9.92 6.2 15.32 17.31 24.84 24 .71.5.35-.51.15-.79-5.07-7.15-10.08-14.34-15.25-21.42-.34-.46-1.18-.89-.6 0zM83.15 41.13c-1.09 15-1.68 30-2.4 45L82 87.36c-3.12-15.81-3.37-32-3.42-48.05 0-.56-1.34-1.63-1.35-1.4L77.12 65c0 8.76-.58 17.71 0 26.45 0 .45 1.43 1.76 1.46 1.39.38-4.55.12-9.21.11-13.77V66.14l-.08-26.87-1.35-1.4c.19 16.19.31 32.42 3.5 48.35.07.33 1.26 1.56 1.28 1.22.68-15.21 1.47-30.42 1.8-45.64 0-.27-.67-.86-.68-.71zM14.06 98.35c24.64-.33 49.24-.81 73.88-.23l-1.77-2.19c-1.18 2.7-5.9 1.9-8.22 1.89q-5.64 0-11.27-.27-11-.45-22-1.61l1.55 2.28q10.39-.28 20.77-.52c6.81-.17 13.91.23 20.66-.68.56-.08-.8-2-1.35-2-6.88-.48-14 .2-20.86.38s-13.84.37-20.75.54c-.55 0 .87 2.21 1.55 2.28q12 1.28 24 1.74 5.89.21 11.78.22c2.23 0 5.1.19 6.13-2.22.26-.61-1.19-2.18-1.77-2.19-24.36-.4-48.84-.38-73.16 1.3-.3 0 .45 1.27.86 1.27z" class="cls-1"/><path d="M81.37 97.55c.71-2.79.37-6.11.25-9S81.29 83 81 80.23c0-.35-1.06-1.32-1-.87q.5 4.81.67 9.63c.1 2.7-.07 5.45.26 8.14 0 .11.42.59.46.43z" class="cls-1"/></svg>