<svg xmlns="http://www.w3.org/2000/svg" id="Layer_1" data-name="Layer 1" viewBox="0 0 100 100"><defs><style>.cls-1{fill:none;stroke:#000;stroke-linecap:round;stroke-linejoin:round;stroke-width:1.8px;}</style></defs><path d="M6.52 10.91A3.21 3.21 0 0 0 5.3 12.5M10.15 8.94a29.34 29.34 0 0 0-6.7 7.64 95 95 0 0 1 17.25-11C15.49 10 10.25 14.5 5.88 19.79L23.53 7.11 7 22.42l18.33-14.5C21 15.49 11.31 18.6 6.44 25.86a57.25 57.25 0 0 0 7.88-5.47L30 8.19C24.2 18 12 22.37 5.95 32c10.28-8.25 20.6-16.53 32-23.19-7.82 10.38-20.18 16.48-28.4 26.54l25.65-19.2-9.51 9.28a64.09 64.09 0 0 0-9.24 10.43c7.21-5.89 14.45-11.8 22.43-16.6l-17.09 17 15.68-12.75-18.29 16.54c.87.46 1.89-.15 2.68-.74l12-9-6.06 9.32a16.24 16.24 0 0 1 7.29-1.88l-3 5.27 3.62-4.08M58.17 58.55l2.35-1.23-8.15 8a55 55 0 0 1 18.27-9.55 116.4 116.4 0 0 0-16.59 13.9 92.68 92.68 0 0 1 24.57-13.08L68.06 63.5c-4 2.65-8.19 5.38-11.06 9.28a150.83 150.83 0 0 1 30.25-18.65 170.32 170.32 0 0 1-15.78 11.66l-17 11.6 31.24-17.5L57 82.25 89.56 61c-11.11 10.79-25.93 17.3-36.4 28.7a224.89 224.89 0 0 1 37.59-21.4L61.37 90.76a238.79 238.79 0 0 1 32.56-21L65.65 91.61q11.43-7.56 23.3-14.44L68.85 94l15.92-10.1-8 8.4a52 52 0 0 1 8.1-3.9 5.38 5.38 0 0 1-1.47 2.32l1.24-2.15" class="cls-1"/></svg>