<svg fill="#fff" xmlns="http://www.w3.org/2000/svg" viewBox="0 0 100 100"><path d="M15.56 12.23a564 564 0 0 0 2.06 71.3c0 .42 1.29 1.63 1.24 1.07-1.86-24.8-1.64-49.6-.7-74.48 0-.44-1.08-1.36-1.09-1.14-1.66 24.81-1 49.76.55 74.55l1.24 1.07c-1.72-23.78-2.56-47.52-2.34-71.37 0-.39-1-1.19-1-1z"/><path d="M18.62 84.66a625.81 625.81 0 0 1 76.18-5.79l-1.22-1.81C69.37 78.84 45.16 80.68 21 82.4l1.18 1.74a680.57 680.57 0 0 1 76.54-2.6c.41 0-.68-2-1.35-2A558.34 558.34 0 0 0 21 82.4c-.42 0 .62 1.78 1.18 1.74 24.22-1.82 48.45-3.52 72.67-5.27.43 0-.65-1.81-1.22-1.81a520.39 520.39 0 0 0-75.84 6.29c-.33.05.48 1.36.89 1.31zM18.4-.35A283.55 283.55 0 0 0 19.72 59c0 .27.88 1.13.86.74-.7-9.95-1.42-19.89-1.67-29.86s0-19.66.16-29.49c0-.26-.66-.85-.67-.7z"/><path d="M3.92 21.79c13.78-1 27.57-1.81 41.38-2.44 13.29-.6 27.19-2 40.33.67l-1.16-1.72C56.74 19.4 29 20.1 1.23 20.8c-.34 0 .54 1.57 1.06 1.57 23.17-.22 46.31.46 69.46 1.35.33 0-.56-1.62-1.12-1.65-23.09-1.47-46.27-1.67-69.4-1.27l1.07 1.57c27.77-.91 55.56-1.82 83.33-2.34.48 0-.75-1.62-1.16-1.72-6.5-1.6-13.19-1.67-19.84-1.49-6.83.18-13.67.48-20.49.81-13.68.68-27.34 1.66-41 3.05-.27 0 .4 1.14.76 1.11z"/><path d="M81.57 26.95a599.64 599.64 0 0 1 2.17 65.2l1.58 1.5C84.05 80.53 83.39 67.33 83 54.17q-.31-9.41-.39-18.83c-.05-5.87-.05-11.78 2.22-17.3l-1.5-1.55c.47 14 .86 28 1.33 41.93l.69 20.76.35 10.38c.09 2.7 1.13 7.15-1 9.29-.4.4 1.13 2.17 1.49 1.84 2-1.82 1.38-4.92 1.3-7.34-.12-3.63-.25-7.26-.38-10.89l-.73-21.28c-.5-14.38-1.07-28.75-1.56-43.13 0-.38-1.26-2.13-1.5-1.55C81 22 81 27.91 81.06 33.78q.09 9.91.43 19.82c.44 12.92 1.33 25.8 2.25 38.69 0 .52 1.56 1.84 1.58 1.5a468.37 468.37 0 0 0-2.67-65.91c0-.36-1.13-1.42-1.08-.93z"/><path d="M19.53 33.15L37.65 19 16 41.63A342.9 342.9 0 0 1 49.85 20L22.43 45.39a136.31 136.31 0 0 1 32.62-23.76L16.67 56.39c15.58-12.28 31.45-24.73 49.93-32l-31 25c-5.2 4.19-10.47 8.44-14.45 13.8C37.65 48.65 54.86 34.32 75 25.52L26.74 66.31c16.33-14.2 33.36-28.8 54.15-34.82q-24.3 18.9-47.58 39.07a230.16 230.16 0 0 1 44.57-29.79l-32.47 28L77 49.42 46.1 76a101.78 101.78 0 0 1 19.36-12.3Q58 72.66 51 82l15.82-11.49c1.6-1.16 3.83-2.33 5.4-1.12a33.87 33.87 0 0 1-8.47 9.85 5 5 0 0 1 1.35-3.88" class="hover-path"/></svg>
