<svg id="Layer_1" data-name="Layer 1" xmlns="http://www.w3.org/2000/svg" viewBox="0 0 20.66 104.42"><defs><style>.cls-1{fill:none;stroke:#fff;stroke-linecap:round;stroke-linejoin:round;stroke-width:2px;}</style></defs><title>I</title><path class="cls-1" d="M658,6.46a5.63,5.63,0,0,0,3.33-2,26.56,26.56,0,0,0-4.83,7.5l7.56-6.23L656.3,18.49,668.43,6.81a61.77,61.77,0,0,0-11.2,14.61L673.1,5.65,656.57,28.3a129.33,129.33,0,0,1,18.07-16.62q-9.18,10.67-17.47,22.08l16.72-16.09Q665,29,657,41.07l15.4-14.9A134.85,134.85,0,0,1,656.8,47l17.66-15.27L660,50.34l12.51-11.78L658.36,57.37,672,45.14,656,65.38l16.75-15.07A164,164,0,0,0,658,70l16.32-15.41L659.69,74.23,673.78,59,657.71,82.33l12.9-12.69L660.14,87.41l12.21-13.29L659.93,94.83l13.38-14.46a158.71,158.71,0,0,1-15.37,21.89l14.14-13.79a80.67,80.67,0,0,1-9.35,14.23,30.76,30.76,0,0,0,9.45-8.1,49.88,49.88,0,0,1-5.42,10.11l7-6.26-4.26,8.47,3.69-3c.26-.21.63-.43.91-.24s-.19.73-.3.41" transform="translate(-654.98 -3.5)"/></svg>