<svg xmlns="http://www.w3.org/2000/svg" id="Layer_1" data-name="Layer 1" viewBox="0 0 100 100"><defs><style>.cls-1{fill:none;stroke:#000;stroke-linecap:round;stroke-linejoin:round;stroke-width:2.91px;}</style></defs><path d="M19.53 33.15L37.65 19 16 41.63A342.9 342.9 0 0 1 49.85 20L22.43 45.39a136.31 136.31 0 0 1 32.62-23.76L16.67 56.39c15.58-12.28 31.45-24.73 49.93-32l-31 25c-5.2 4.19-10.47 8.44-14.45 13.8C37.65 48.65 54.86 34.32 75 25.52L26.74 66.31c16.33-14.2 33.36-28.8 54.15-34.82q-24.3 18.9-47.58 39.07a230.16 230.16 0 0 1 44.57-29.79l-32.47 28L77 49.42 46.1 76a101.78 101.78 0 0 1 19.36-12.3Q58 72.66 51 82l15.82-11.49c1.6-1.16 3.83-2.33 5.4-1.12a33.87 33.87 0 0 1-8.47 9.85 5 5 0 0 1 1.35-3.88" class="cls-1"/></svg>