<svg id="Layer_1" data-name="Layer 1" xmlns="http://www.w3.org/2000/svg" viewBox="0 0 70.02 105.03"><defs><style>.cls-1{fill:none;stroke:#fff;stroke-linecap:round;stroke-linejoin:round;stroke-width:2px;}</style></defs><title>L</title><path class="cls-1" d="M574,6.46a5.63,5.63,0,0,0,3.33-2,26.56,26.56,0,0,0-4.83,7.5l7.56-6.23L572.3,18.49,584.43,6.81a61.77,61.77,0,0,0-11.2,14.61L589.1,5.65,572.57,28.3a129.33,129.33,0,0,1,18.07-16.62q-9.18,10.67-17.47,22.08l16.72-16.09Q581,29,573,41.07l15.4-14.9A134.85,134.85,0,0,1,572.8,47l17.66-15.27L576,50.34l12.51-11.78L574.36,57.37,588,45.14,572,65.38l16.75-15.07A164,164,0,0,0,574,70l16.32-15.41L575.69,74.23,589.78,59,573.71,82.33l12.9-12.69L576.14,87.41l12.21-13.29L575.93,94.83l13.38-14.46a158.71,158.71,0,0,1-15.37,21.89l14.14-13.79a80.67,80.67,0,0,1-9.35,14.23,30.76,30.76,0,0,0,9.45-8.1,49.88,49.88,0,0,1-5.42,10.11l7-6.26-4.26,8.47,3.69-3c.26-.21.63-.43.91-.24s-.19.73-.3.41" transform="translate(-570.98 -3.5)"/><path class="cls-1" d="M593,98.5a19.67,19.67,0,0,0-3.62,6.63,66.76,66.76,0,0,0,9.9-10.06c.75.07.67,1.19.36,1.87l-3.88,8.66,8.05-8.46a91.13,91.13,0,0,1-4.6,9.24l10.29-10.27-5,11.42,10.95-10.87A53.92,53.92,0,0,0,609.87,107l10.29-10.82a71.21,71.21,0,0,1-6.28,10.58L626.43,94.5l-7.33,12.09,11.38-10.46-5.84,10,10.75-9.68a39.57,39.57,0,0,0-5.79,10.25A60,60,0,0,1,640,97.56l-5.94,8.85a2.06,2.06,0,0,0,2-1l.93,1" transform="translate(-570.98 -3.5)"/></svg>