<svg fill="#fff" xmlns="http://www.w3.org/2000/svg" data-name="Layer 1" viewBox="0 0 310.9 187.31"><path d="M155.48 65.16c-1 1.05-1.76 2-2.62 2.76a5 5 0 0 0-1.58 5.08 7.22 7.22 0 0 0 .92-.84c1.45-1.9 3-3.75 4.28-5.75a78.72 78.72 0 0 1 8.3-10.77 16.46 16.46 0 0 1 7.56-5 14.85 14.85 0 0 1 9.62.9 1.61 1.61 0 0 1 .7.8c2.09 4.4 4.18 8.8 6.22 13.23 1.12 2.37 2.12 4.87 3.25 7.43l1.12-.62c3.61-2 7.13-4.22 10.83-6.07 12.07-6 24.86-2.28 33 5.13.09.08.16.18.32.35a8 8 0 0 1-3.87.65 18.16 18.16 0 0 1-7.2-2.07 18.77 18.77 0 0 1-2.43-1.29 6.24 6.24 0 0 0-3.66-1 21.89 21.89 0 0 0-11.24 3c-2.73 1.58-5.37 3.32-8 5-1.19.75-2.36 1.55-3.57 2.28a11.89 11.89 0 0 1-11 .78 5 5 0 0 1-3.25-3.05q-2.31-6.06-4.81-12c-.93-2.22-2-4.37-3.16-6.74-.89.76-1.6 1.31-2.26 1.94a61.27 61.27 0 0 0-7.34 9.19q-3.88 5.48-7.85 10.9a25.12 25.12 0 0 1-2.35 2.62c-3 3.07-6.57 3.74-10.57 2.43-1-.32-1.9-.84-2.87-1.22a2.08 2.08 0 0 1-1.33-2 48 48 0 0 1 .31-10.83c.11-1.06.22-2.13.35-3.33-12.28-1.53-24.59-1-36.89-1.58.44 3 1 5.76 1.26 8.59.8 8.3 1.66 16.6 2.2 24.93 1 15 .95 30.05.67 45.09-.2 10.8-.65 21.59-1 32.38-.07 2.33-.09 4.66-.23 7a5 5 0 0 1-1.68 3.57 1 1 0 0 1-.77.27c-1.95-.53-3.88-1.15-5.83-1.67a1.86 1.86 0 0 1-1.65-1.9c-.71-9.08-1.73-18.15-2.2-27.24-.92-17.92-1.52-35.86-2.31-53.79-.52-11.87-1.31-23.7-2.7-35.51 0-.39-.1-.79-.15-1.2a1.55 1.55 0 0 0-.38-.1q-12.19.1-24.39.22c-.85 0-1.7.21-2.55.3a7.26 7.26 0 0 0-5.33 3.09c-2.11 2.9-4.28 5.77-6.18 8.8-8.14 13-18.39 24.12-29.7 34.35a29.3 29.3 0 0 1-9.29 5.87 14.73 14.73 0 0 1-11.3-.09c-.28-.12-.54-.25-.89-.42.14-.1.19-.17.25-.18 6.42-1.4 11.77-4.76 16.65-9s9-9.06 13.26-13.79a196.63 196.63 0 0 0 18.91-25.37c.1-.15.17-.31.38-.69-1.82.26-3.44.47-5.06.71-3.34.5-6.66 1.11-10 1.48a16.63 16.63 0 0 1-9.44-1.34c-.43-.21-.83-.48-1.45-.85a39.66 39.66 0 0 1 4.07-3.08 94 94 0 0 1 8.87-4.65c7.69-3.38 15.46-6.58 23.18-9.88a2.37 2.37 0 0 0 1-1c5.17-9 9.73-18.24 14.08-27.61C77.2 17.44 79.5 12 82 6.7a63.73 63.73 0 0 1 3.6-6 1.46 1.46 0 0 1 1.9-.59c1.85.55 3.72 1 5.68 1.52.09 1.47.19 3 .27 4.52.65 11.31 2.18 22.53 3.78 33.73.48 3.33.56 6.72.92 10.08a45.38 45.38 0 0 0 .92 5.43 14.88 14.88 0 0 0 1.22 3.06 4.38 4.38 0 0 0 4.43 2.73q13.8 0 27.6.56a101 101 0 0 1 21.83 3zM85.05 19.25h-.31l-14.9 30.29c6.48-1.24 12.66.39 18.91 1.2-.26-2.22-.55-4.28-.75-6.35-.58-6.23-1.05-12.46-1.7-18.68-.22-2.18-.82-4.31-1.25-6.46zM63 61.88c9-1.32 17.81-.22 26.57-1.19a5.37 5.37 0 0 0-3.64-5.74 13.85 13.85 0 0 0-6.61-.81c-4.23.47-8.44 1.14-12.65 1.74a1 1 0 0 0-.62.33c-.88 1.32-1.76 2.65-2.56 4a7.42 7.42 0 0 0-.49 1.67zm-8.4-1c-1.66-.1-4.2 1.06-4.8 2.19 2.6.45 4.33-.34 4.77-2.22z"/><path d="M147 129.66a21.89 21.89 0 0 1-8.36 1.38 13.42 13.42 0 0 1-9.92-4.11 13.71 13.71 0 0 1-4.07-10 14.54 14.54 0 0 1 3.59-10 11.79 11.79 0 0 1 9.27-4.07 34.63 34.63 0 0 1 10 1.56l.56-1.73a33.89 33.89 0 0 0-10.52-1.69 14.11 14.11 0 0 0-10.87 4.61 16.13 16.13 0 0 0-4.24 11.34 15.45 15.45 0 0 0 4.68 11.39 15.61 15.61 0 0 0 11.45 4.66q6.77 0 10.54-2.34v-13.73H147zM228.92 103.43a11.64 11.64 0 0 0-7.3-2.12q-3.38 0-7 .35v30.78h2.08v-29.1q2.6-.17 4.55-.17a9.8 9.8 0 0 1 5.93 1.62q2.21 1.62 2.21 5.24a6.9 6.9 0 0 1-3.16 5.87 12.5 12.5 0 0 1-7.45 2.25h-.3v1.43h.52a14.69 14.69 0 0 0 8.94-2.75 8.37 8.37 0 0 0 3.75-7q-.02-4.28-2.77-6.4zM261.45 115.07H240.2v-13.59h-2.08v30.96h2.08v-15.51h21.25v15.51h2.08v-30.96h-2.08v13.59M274.1 101.48h2.08v30.96h-2.08zM310.25 129.49a22.79 22.79 0 0 1-8.83 1.56 13.74 13.74 0 0 1-10-4.13 13.58 13.58 0 0 1-4.18-10 14.51 14.51 0 0 1 3.59-10 11.79 11.79 0 0 1 9.27-4.07 34.63 34.63 0 0 1 10 1.56l.56-1.73a33.89 33.89 0 0 0-10.58-1.68 14.11 14.11 0 0 0-10.87 4.61A16.19 16.19 0 0 0 285 117a15.09 15.09 0 0 0 4.85 11.39 16.25 16.25 0 0 0 11.6 4.61 27 27 0 0 0 5.17-.52 14 14 0 0 0 4.28-1.48zM160.36 118.22v-14.88q2.6-.17 4.55-.17a9.46 9.46 0 0 1 5.91 1.71 5.94 5.94 0 0 1 2.23 5 8.65 8.65 0 0 1-2.16 5.82q-2 2.33-3.79 2.5h-5v1.8h5.93q5.93 8.14 7.42 9.7a10.44 10.44 0 0 0 3.14 2.32 10.78 10.78 0 0 0 4.29.8l4.68-11.08h13.86l4.46 10.74h2.34l-13.08-31.17H194l-12.47 29.83a10.08 10.08 0 0 1-4.5-2.9q-.69-.78-3.05-3.83t-4-5.26a14.74 14.74 0 0 0 3.68-3.85 9.15 9.15 0 0 0 1.65-5.24 7.74 7.74 0 0 0-2.86-6.43 11.32 11.32 0 0 0-7.27-2.27q-2.77 0-6.88.3v30.83h2.08v-14.27zm28.15 1.62l6-14.49 6.06 14.49zM160.42 157.92h-8.9v7.66h10.19v1.29H150v-18.49h11.64v1.29h-10.12v6.94h8.9zM175.57 162.33a3.08 3.08 0 0 0-1.13-2.46 10.4 10.4 0 0 0-3.94-1.69 12.45 12.45 0 0 1-4.6-2 4 4 0 0 1-1.56-3.29 4.15 4.15 0 0 1 1.75-3.45 7.18 7.18 0 0 1 4.49-1.33 6.6 6.6 0 0 1 4.61 1.59 4.87 4.87 0 0 1 1.7 3.87v.08h-1.4a3.94 3.94 0 0 0-1.31-3 5.1 5.1 0 0 0-3.56-1.19 5.46 5.46 0 0 0-3.47 1 3 3 0 0 0-1.25 2.46 2.88 2.88 0 0 0 1.16 2.33 10.78 10.78 0 0 0 4 1.64 11.55 11.55 0 0 1 4.54 2.06 4.23 4.23 0 0 1 1.55 3.42 4.12 4.12 0 0 1-1.81 3.52 7.68 7.68 0 0 1-4.62 1.31 8.44 8.44 0 0 1-4.83-1.39 4.45 4.45 0 0 1-2-4.06v-.08h1.4a3.53 3.53 0 0 0 1.61 3.19 6.85 6.85 0 0 0 3.8 1 6 6 0 0 0 3.55-1 3 3 0 0 0 1.32-2.53zM193 149.68h-6.36v17.19h-1.52v-17.19h-6.36v-1.29H193zM204.33 148.38l6.79 16.28h.08l6.8-16.28h2v18.48h-1.51v-8.16l.13-8.09h-.08l-6.87 16.28h-1.05l-6.86-16.2h-.08l.14 8v8.16h-1.51v-18.47zM226.87 148.38l6.79 16.28h.08l6.82-16.28h2v18.48H241v-8.16l.13-8.09h-.08l-6.87 16.28h-1.05l-6.86-16.2h-.08l.14 8v8.16h-1.51v-18.47zM253.17 156.28l5.22-7.9h1.84l-6.14 9.12 6.35 9.37h-1.82l-5.42-8.15-5.41 8.15h-1.84l6.35-9.37-6.16-9.12H248zM265.42 166.87h-1.52v-18.49h1.52zM275.8 163.75l.37 1.23h.08l.37-1.23 5.55-15.36h1.65l-6.89 18.48h-1.43l-6.89-18.48h1.65z"/></svg>
