<svg id="Layer_1" data-name="Layer 1" xmlns="http://www.w3.org/2000/svg" viewBox="0 0 630.32 133.23"><defs><style>.missya-path{fill:#fff;}</style></defs><title>MISSYA_logo</title><path class="missya-path" d="M210.21,115.29h1.09V126c0,1.75,0,3.25-1.16,4.68a6.42,6.42,0,0,1-9.31,0c-1.16-1.43-1.16-2.93-1.16-4.68V115.29h1.09v10.36c0,1.54,0,3.18.89,4.31a5.27,5.27,0,0,0,7.68,0c.89-1.13.89-2.77.89-4.31Z"/><path class="missya-path" d="M241.18,133,226.81,117.7v14.72h-1.09V115.06l14.38,15.17V115.29h1.09Z"/><path class="missya-path" d="M255.76,115.29h3.09c2.5,0,4.47.41,6.36,2.16a8.86,8.86,0,0,1,.09,12.7,8.43,8.43,0,0,1-6.45,2.27h-3.09Zm3.07,16.1a7.53,7.53,0,0,0,5.75-2.07,7.74,7.74,0,0,0-.21-11.15,7.59,7.59,0,0,0-5.54-1.86h-2v15.08Z"/><path class="missya-path" d="M283.42,116.31v6.22h6.9v1h-6.9v7.84h7.09v1h-8.18V115.29h8.18v1Z"/><path class="missya-path" d="M314.91,132.41h-1.25l-5.59-8.11h-.54v8.11h-1.09V115.29h2.14a6.31,6.31,0,0,1,3.91.86,4.3,4.3,0,0,1,1.73,3.68c0,3-2.07,4.52-4.91,4.47Zm-6-9.13a4.27,4.27,0,0,0,3-.8,3.43,3.43,0,0,0,1.2-2.7,3.27,3.27,0,0,0-1.82-3.09,7.35,7.35,0,0,0-3.07-.38h-.71v7Z"/><path class="missya-path" d="M331.06,130l6.4-15.58,6.4,15.58,4.75-14.72h1.09L343.94,133l-6.54-15.83L330.88,133l-5.72-17.69h1.09Z"/><path class="missya-path" d="M363,116.31v6.22h6.91v1H363v7.84h7.09v1h-8.18V115.29h8.18v1Z"/><path class="missya-path" d="M386,126.78l-2.29,5.63h-1.11l7.18-17.69,7.15,17.69h-1.11l-2.29-5.63Zm3.77-9.29-3.36,8.27h6.7Z"/><path class="missya-path" d="M416.52,132.41h-1.25l-5.59-8.11h-.55v8.11H408V115.29h2.13a6.3,6.3,0,0,1,3.91.86,4.3,4.3,0,0,1,1.73,3.68c0,3-2.07,4.52-4.91,4.47Zm-6-9.13a4.27,4.27,0,0,0,3-.8,3.43,3.43,0,0,0,1.21-2.7,3.28,3.28,0,0,0-1.82-3.09,7.37,7.37,0,0,0-3.07-.38h-.7v7Z"/><polygon class="missya-path" points="203.83 0 199.95 0 199.95 93.72 205.28 93.72 205.28 0 203.83 0"/><path class="missya-path" d="M279.37,0H246.91c-18.68,0-31.73,10-31.73,24.22,0,14.11,13,24,31.73,24h15.26c14.8,0,26.39,8.94,26.39,20.34s-11.35,20.12-26.39,20.12h-47v5.08h47c18.38,0,31.72-10.6,31.72-25.2,0-14.25-13.94-25.42-31.72-25.42H246.91c-15.44,0-26.64-7.94-26.64-18.88s11.2-19.14,26.64-19.14h33.92V0Z"/><path class="missya-path" d="M366.06,0H333.61C314.94,0,301.9,10,301.9,24.22c0,14.11,13,24,31.72,24h15.26c14.8,0,26.39,8.94,26.39,20.34s-11.35,20.12-26.39,20.12h-47v5.08h47c18.38,0,31.73-10.6,31.73-25.2,0-14.25-13.94-25.42-31.73-25.42H333.61C318.18,43.1,307,35.16,307,24.22s11.2-19.14,26.64-19.14h33.9V0Z"/><path class="missya-path" d="M481.92,50.12a38,38,0,1,1-76.08,0V.36h-11.6V50.12A49.55,49.55,0,0,0,481.92,82v51.27h11.6V.6h-11.6Z"/><path class="missya-path" d="M549.87.36A49.48,49.48,0,1,0,587.49,81.7V97.32h11.7V53.1s.16-3.25.16-3.25A49.54,49.54,0,0,0,549.87.36Zm0,86.92a37.44,37.44,0,1,1,37.44-37.43A37.48,37.48,0,0,1,549.87,87.28Z"/><path class="missya-path" d="M135.45,0A46.94,46.94,0,0,0,91.12,31.67,46.88,46.88,0,0,0,0,47.07v47H5.18v-47a41.69,41.69,0,0,1,83.37,0v47h5.18v-.25h0v-47a41.69,41.69,0,0,1,83.37,0v47h5.18v-47A46.88,46.88,0,0,0,135.45,0Z"/><path class="missya-path" d="M616.82.57A13.46,13.46,0,1,1,603.25,14,13.39,13.39,0,0,1,616.82.57Zm0,24.95c6.23,0,11.05-5,11.05-11.56a11.09,11.09,0,1,0-22.18,0C605.7,20.55,610.52,25.52,616.82,25.52ZM611.56,6.15h6.08c3.74,0,5.51,1.48,5.51,4.5,0,2.84-1.8,4-4.14,4.28l4.5,6.95h-2.63l-4.29-6.77H614v6.77h-2.45Zm2.45,7h2.56c2.16,0,4.14-.11,4.14-2.59,0-2.09-1.8-2.41-3.46-2.41H614Z"/></svg>
