<svg id="Layer_1" data-name="Layer 1" xmlns="http://www.w3.org/2000/svg" viewBox="0 0 88.18 110.15"><defs><style>.cls-1{fill:none;stroke:#fff;stroke-linecap:round;stroke-linejoin:round;stroke-width:2px;}</style></defs><title>O3</title><path class="cls-1" d="M741.81,3.62l-3.33,9.74A35.26,35.26,0,0,0,747,2.72L738.86,18A76.65,76.65,0,0,0,751.07,4.25l-7.31,15.25A84.22,84.22,0,0,0,754.4,8.11l-5.11,12.42,11.24-13.4-8.4,17.94,12.15-13.9-7.49,16.1,12.75-12.79L758.82,32l15.24-13.46L761.8,37.46l14.53-12.9L764,42.18,780.95,28.1,765.17,46.64l13.36-8.87L761.81,57.38A94.2,94.2,0,0,1,779.1,47L764.72,63.94a104.18,104.18,0,0,1,16.42-12.72L766.36,69.6l13.1-10.67L763.13,80.16a63,63,0,0,1,16.74-13.9L762.21,89.61l19.47-19.09a178.42,178.42,0,0,1-15.7,22,56.8,56.8,0,0,1,11.08-11.25A107.08,107.08,0,0,1,766,99.82a28.66,28.66,0,0,0,4.47-9.46l-15.6,16,6.42-12a75.77,75.77,0,0,1-10.58,13.8,98.63,98.63,0,0,1,8.51-15.39l-15.19,18A102.1,102.1,0,0,1,755.2,92.39l-16.81,16.14A22.38,22.38,0,0,1,743,99.48a47.49,47.49,0,0,0-8.72,8.16l5.65-8.8L728.2,109.69l9.73-12.92L727.5,107" transform="translate(-694.5 -1.72)"/><path class="cls-1" d="M735.36,110l3.33-9.74a35.26,35.26,0,0,0-8.47,10.63l8.09-15.31a76.65,76.65,0,0,0-12.21,13.78l7.31-15.25a84.22,84.22,0,0,0-10.65,11.38l5.11-12.42-11.24,13.4L725,88.52l-12.15,13.9,7.49-16.1L707.63,99.1l10.72-17.49L703.11,95.08l12.27-18.93L700.85,89l12.33-17.62L696.23,85.5,712,67l-13.36,8.87,16.72-19.61a94.2,94.2,0,0,1-17.29,10.36l14.38-16.92A104.18,104.18,0,0,1,696,62.37L710.82,44l-13.1,10.67L714,33.44a63,63,0,0,1-16.74,13.9L715,24,695.5,43.08a178.42,178.42,0,0,1,15.7-22,56.8,56.8,0,0,1-11.08,11.25,107.08,107.08,0,0,1,11.11-18.58,28.66,28.66,0,0,0-4.47,9.46l15.6-16-6.42,12a75.77,75.77,0,0,1,10.58-13.8A98.63,98.63,0,0,1,718,20.77l15.19-18A102.1,102.1,0,0,1,722,21.2L738.79,5.06a22.38,22.38,0,0,1-4.65,9.06A47.49,47.49,0,0,0,742.85,6l-5.65,8.8L749,3.91l-9.73,12.92L749.68,6.6" transform="translate(-694.5 -1.72)"/></svg>