<svg id="Layer_1" data-name="Layer 1" xmlns="http://www.w3.org/2000/svg" viewBox="0 0 783 112"><defs><style>.cls-1{fill:none;stroke:#fff;stroke-linecap:round;stroke-linejoin:round;stroke-width:2px;}</style></defs><title>P</title><path class="cls-1" d="M3,6.46a5.63,5.63,0,0,0,3.33-2A26.56,26.56,0,0,0,1.49,12L9.05,5.78,1.3,18.49,13.43,6.81A61.77,61.77,0,0,0,2.22,21.42L18.1,5.65,1.57,28.3A129.33,129.33,0,0,1,19.63,11.68Q10.45,22.35,2.17,33.76L18.89,17.67Q10,29,2,41.07l15.4-14.9A134.85,134.85,0,0,1,1.8,47L19.45,31.76,5,50.34,17.51,38.56,3.36,57.37,17,45.14,1,65.38,17.73,50.31A164,164,0,0,0,3,70L19.33,54.56,4.69,74.23,18.78,59,2.71,82.33l12.9-12.69L5.14,87.41,17.35,74.12,4.93,94.83,18.31,80.37A158.71,158.71,0,0,1,2.94,102.26L17.08,88.47a80.67,80.67,0,0,1-9.35,14.23,30.76,30.76,0,0,0,9.45-8.1,49.88,49.88,0,0,1-5.42,10.11l7-6.26-4.26,8.47,3.69-3c.26-.21.63-.43.91-.24s-.19.73-.3.41"/><path class="cls-1" d="M21,9.5a18.49,18.49,0,0,1,5.59-4.37l-5.7,10L31.46,6.62a82.74,82.74,0,0,1-8,11.65L36.69,5.79l-8,13.11L44.5,4,36.35,17.45,47.56,5.09a110.32,110.32,0,0,1-6.68,13.28,40.65,40.65,0,0,1,14-12.27L47.6,18.76,58.56,8,52.3,21.29l9.29-7.87L55.72,24A57.69,57.69,0,0,1,68.5,12.6l-7.72,14.5,9.82-9.81L62.11,34,73.26,22,61.35,43.54l14-13.85L64,47.29a79.3,79.3,0,0,1,15.6-13.67L67.25,53.83,77,45.77A180.69,180.69,0,0,1,65.53,61.22a40.41,40.41,0,0,1,7.39-9.77,73,73,0,0,1-13.43,13L65.42,52.2,53.88,67.31A158.1,158.1,0,0,1,63,51.12L49.17,68l6.56-14.64L44.4,69.11,49,58.17,38.67,68.63a39,39,0,0,1,6.64-12.54A99.91,99.91,0,0,1,29.86,72.54,125.18,125.18,0,0,1,37,58.22L22.16,70.69,29.94,59.3a41.42,41.42,0,0,0-9.18,6.9L26,58.35l-8.15,4.77a2.09,2.09,0,0,1,.76-3"/></svg>