<svg xmlns="http://www.w3.org/2000/svg" viewBox="0 0 841 105">
  <!--P path-->
  <path class="header-path" d="M3,6.46a5.63,5.63,0,0,0,3.33-2A26.56,26.56,0,0,0,1.49,12L9.05,5.78,1.3,18.49,13.43,6.81A61.77,61.77,0,0,0,2.22,21.42L18.1,5.65,1.57,28.3A129.33,129.33,0,0,1,19.63,11.68Q10.45,22.35,2.17,33.76L18.89,17.67Q10,29,2,41.07l15.4-14.9A134.85,134.85,0,0,1,1.8,47L19.45,31.76,5,50.34,17.51,38.56,3.36,57.37,17,45.14,1,65.38,17.73,50.31A164,164,0,0,0,3,70L19.33,54.56,4.69,74.23,18.78,59,2.71,82.33l12.9-12.69L5.14,87.41,17.35,74.12,4.93,94.83,18.31,80.37A158.71,158.71,0,0,1,2.94,102.26L17.08,88.47a80.67,80.67,0,0,1-9.35,14.23,30.76,30.76,0,0,0,9.45-8.1,49.88,49.88,0,0,1-5.42,10.11l7-6.26-4.26,8.47,3.69-3c.26-.21.63-.43.91-.24s-.19.73-.3.41"/>
  <path class="header-path" d="M21,9.5a18.49,18.49,0,0,1,5.59-4.37l-5.7,10L31.46,6.62a82.74,82.74,0,0,1-8,11.65L36.69,5.79l-8,13.11L44.5,4,36.35,17.45,47.56,5.09a110.32,110.32,0,0,1-6.68,13.28,40.65,40.65,0,0,1,14-12.27L47.6,18.76,58.56,8,52.3,21.29l9.29-7.87L55.72,24A57.69,57.69,0,0,1,68.5,12.6l-7.72,14.5,9.82-9.81L62.11,34,73.26,22,61.35,43.54l14-13.85L64,47.29a79.3,79.3,0,0,1,15.6-13.67L67.25,53.83,77,45.77A180.69,180.69,0,0,1,65.53,61.22a40.41,40.41,0,0,1,7.39-9.77,73,73,0,0,1-13.43,13L65.42,52.2,53.88,67.31A158.1,158.1,0,0,1,63,51.12L49.17,68l6.56-14.64L44.4,69.11,49,58.17,38.67,68.63a39,39,0,0,1,6.64-12.54A99.91,99.91,0,0,1,29.86,72.54,125.18,125.18,0,0,1,37,58.22L22.16,70.69,29.94,59.3a41.42,41.42,0,0,0-9.18,6.9L26,58.35l-8.15,4.77a2.09,2.09,0,0,1,.76-3"/>
  <!--O path-->
  <path class="header-path" d="M141.81,3.62l-3.33,9.74A35.26,35.26,0,0,0,147,2.72L138.86,18A76.65,76.65,0,0,0,151.07,4.25l-7.31,15.25A84.22,84.22,0,0,0,154.4,8.11l-5.11,12.42,11.24-13.4-8.4,17.94,12.15-13.9-7.49,16.1,12.75-12.79L158.82,32l15.24-13.46L161.8,37.46l14.53-12.9L164,42.18,180.95,28.1,165.17,46.64l13.36-8.87L161.81,57.38A94.2,94.2,0,0,1,179.1,47L164.72,63.94a104.18,104.18,0,0,1,16.42-12.72L166.36,69.6l13.1-10.67L163.13,80.16a63,63,0,0,1,16.74-13.9L162.21,89.61l19.47-19.09a178.42,178.42,0,0,1-15.7,22,56.8,56.8,0,0,1,11.08-11.25A107.08,107.08,0,0,1,166,99.82a28.66,28.66,0,0,0,4.47-9.46l-15.6,16,6.42-12a75.77,75.77,0,0,1-10.58,13.8,98.63,98.63,0,0,1,8.51-15.39l-15.19,18A102.1,102.1,0,0,1,155.2,92.39l-16.81,16.14A22.38,22.38,0,0,1,143,99.48a47.49,47.49,0,0,0-8.72,8.16l5.65-8.8L128.2,109.69l9.73-12.92L127.5,107"/>
  <path class="header-path" d="M135.36,110l3.33-9.74a35.26,35.26,0,0,0-8.47,10.63l8.09-15.31a76.65,76.65,0,0,0-12.21,13.78l7.31-15.25a84.22,84.22,0,0,0-10.65,11.38l5.11-12.42-11.24,13.4L125,88.52l-12.15,13.9,7.49-16.1L107.63,99.1l10.72-17.49L103.11,95.08l12.27-18.93L100.85,89l12.33-17.62L96.23,85.5,112,67,98.65,75.83l16.72-19.61A94.2,94.2,0,0,1,98.08,66.58l14.38-16.92A104.18,104.18,0,0,1,96,62.37L110.82,44,97.72,54.67,114,33.44a63,63,0,0,1-16.74,13.9L115,24,95.5,43.08a178.42,178.42,0,0,1,15.7-22,56.8,56.8,0,0,1-11.08,11.25,107.08,107.08,0,0,1,11.11-18.58,28.66,28.66,0,0,0-4.47,9.46l15.6-16-6.42,12a75.77,75.77,0,0,1,10.58-13.8A98.63,98.63,0,0,1,118,20.77l15.19-18A102.1,102.1,0,0,1,122,21.2L138.79,5.06a22.38,22.38,0,0,1-4.65,9.06A47.49,47.49,0,0,0,142.85,6l-5.65,8.8L149,3.91l-9.73,12.92L149.68,6.6"/>
  <!--R path-->
  <path class="header-path"   d="M204,6.46a5.63,5.63,0,0,0,3.33-2,26.56,26.56,0,0,0-4.83,7.5l7.56-6.23L202.3,18.49,214.43,6.81a61.77,61.77,0,0,0-11.2,14.61L219.1,5.65,202.57,28.3a129.33,129.33,0,0,1,18.07-16.62q-9.18,10.67-17.47,22.08l16.72-16.09Q211,29,203,41.07l15.4-14.9A134.85,134.85,0,0,1,202.8,47l17.66-15.27L206,50.34l12.51-11.78L204.36,57.37,218,45.14,202,65.38l16.75-15.07A164,164,0,0,0,204,70l16.32-15.41L205.69,74.23,219.78,59,203.71,82.33l12.9-12.69L206.14,87.41l12.21-13.29L205.93,94.83l13.38-14.46a158.71,158.71,0,0,1-15.37,21.89l14.14-13.79a80.67,80.67,0,0,1-9.35,14.23,30.76,30.76,0,0,0,9.45-8.1,49.88,49.88,0,0,1-5.42,10.11l7-6.26-4.26,8.47,3.69-3c.26-.21.63-.43.91-.24s-.19.73-.3.41"/>
  <path class="header-path" d="M224,5.5a14,14,0,0,0-3.22,5,26.79,26.79,0,0,0,7.5-5.64l-6.13,10.93L232.4,6.29l-7.11,10.13L236.8,6A30.11,30.11,0,0,1,230,17.75L242.27,6.63l-7.81,12L246.15,6.81a52.85,52.85,0,0,1-7,11.64l13.17-11L245.79,17l9.14-7.56-5.67,9,10.63-7.12-7,10.84,10.56-8.52-7,11.7a83.1,83.1,0,0,1,12.46-9.4l-9.27,11.79L268,20.65l-8.72,12.18L272,23.71a92.43,92.43,0,0,1-12.84,14.75l13.44-8.82L260.61,44.12,273.8,33.82,260.69,49l11.8-8.43L257.7,59.13l8.21-9.84L253.82,63.22l6.27-15.12-13.3,16.14a100.53,100.53,0,0,1,6.8-14.76,113.79,113.79,0,0,1-11.37,11.79l5.51-9.15L238,62l2.15-5.34a33,33,0,0,1-7.89,8.49l1.86-8a31.41,31.41,0,0,0-8.54,7.9l3.13-7.47a27,27,0,0,0-6.94,6.4,29.84,29.84,0,0,0,2.8-8,14.62,14.62,0,0,0-5.14,4.09,109.91,109.91,0,0,0,11.93-7.76L226.74,63l15.34-11.55a15.37,15.37,0,0,1-2.85,9.71l7.3-4.9L244.71,63a44.36,44.36,0,0,0,8.16-5.53l-4.17,9.26,7.81-5.56-2,7,7.69-5.87a18.88,18.88,0,0,1-6.08,10.11l9.61-8.54-5.44,8.87,5.54-5-6.17,9.65a87.66,87.66,0,0,1,13.46-8.68L260,83.37l15.32-11.06L260.77,90,276.87,78,261.26,96.68l15-12.36a111.49,111.49,0,0,0-12.66,17.38l14.44-12.12L263.83,106.7a56.85,56.85,0,0,0,14.3-11.35l-6.35,8.84,7.1-4.94a43.51,43.51,0,0,1-6.15,8.33,19.66,19.66,0,0,0,6.07-4.37l-.28,2.55a1.46,1.46,0,0,1,2.29,1.39"/>
  <!--T path-->
  <path class="header-path" d="M322,20.68A5.88,5.88,0,0,0,325.32,19a22.74,22.74,0,0,0-4.83,6.44l7.56-5.35L320.3,31l12.13-10a54.84,54.84,0,0,0-11.2,12.54L337.1,20,320.57,39.43a124.23,124.23,0,0,1,18.07-14.27q-9.18,9.16-17.47,19L337.89,30.3Q329,40,321,50.39l15.4-12.79A119.14,119.14,0,0,1,320.8,55.51L338.45,42.4,324,58.35l12.51-10.11L322.36,64.38,336,53.88,320,71.26l16.75-12.94A144.83,144.83,0,0,0,322,75.2L338.33,62,323.69,78.86l14.09-13.1L321.71,85.81l12.9-10.89L324.14,90.17l12.21-11.41L323.93,96.54l13.38-12.41a138.26,138.26,0,0,1-15.37,18.79l14.14-11.84a69.32,69.32,0,0,1-9.35,12.21,30,30,0,0,0,9.45-7,41.26,41.26,0,0,1-5.42,8.68l7-5.38-4.26,7.27,3.69-2.55c.26-.18.63-.37.91-.21s-.19.62-.3.35"/>
  <path class="header-path" d="M293,4.51l-2.42,7.37a27.4,27.4,0,0,0,6.83-6.27l-7,11.15a49.25,49.25,0,0,0,9.74-10A104,104,0,0,1,295.18,18L305.45,7.16l-5.39,11.76A103.38,103.38,0,0,0,310.52,6.11L304.9,18.73A113.44,113.44,0,0,0,315,7.09l-3.12,11.45A50.1,50.1,0,0,1,320.32,8a46.5,46.5,0,0,0-4.53,11.67,44.68,44.68,0,0,1,11-12.39L322,18.67a46.74,46.74,0,0,1,13.62-13l-6.81,13.14L338.65,8.1l-5.5,12.19A53.47,53.47,0,0,1,347.25,7l-7,12.45L353.22,7.7A39.54,39.54,0,0,0,348,18.18,59,59,0,0,1,360,6.95l-4.77,8.93L363,7.06l-4.86,9.55,7.4-7.49a26.28,26.28,0,0,0-2.91,7.4l3.52-3.4a5.44,5.44,0,0,1-1.7,4.33"/>
  <!--F path-->
  <path class="header-path" d="M386,6.46a5.63,5.63,0,0,0,3.33-2,26.56,26.56,0,0,0-4.83,7.5l7.56-6.23L384.3,18.49,396.43,6.81a61.77,61.77,0,0,0-11.2,14.61L401.1,5.65,384.57,28.3a129.33,129.33,0,0,1,18.07-16.62q-9.18,10.67-17.47,22.08l16.72-16.09Q393,29,385,41.07l15.4-14.9A134.85,134.85,0,0,1,384.8,47l17.66-15.27L388,50.34l12.51-11.78L386.36,57.37,400,45.14,384,65.38l16.75-15.07A164,164,0,0,0,386,70l16.32-15.41L387.69,74.23,401.78,59,385.71,82.33l12.9-12.69L388.14,87.41l12.21-13.29L387.93,94.83l13.38-14.46a158.71,158.71,0,0,1-15.37,21.89l14.14-13.79a80.67,80.67,0,0,1-9.35,14.23,30.76,30.76,0,0,0,9.45-8.1,49.88,49.88,0,0,1-5.42,10.11l7-6.26-4.26,8.47,3.69-3c.26-.21.63-.43.91-.24s-.19.73-.3.41"/>
  <path class="header-path" d="M407.58,5A33.9,33.9,0,0,0,404.13,14l9.27-8.24-6.83,12.68L421.4,3.34A39.52,39.52,0,0,1,414.64,17c1.87-.11,3.27-1.71,4.43-3.18l8-10.14a75.5,75.5,0,0,1-8.69,13.2c1.89-.05,3.4-1.51,4.71-2.87l8.49-8.86-6.31,13.56L436.12,7.06,430.24,20c5.53-3.63,6.91-11.87,12.82-14.82l-7.3,15.64L448.87,4.88l-5.4,11.59a59.9,59.9,0,0,0,9-9.62L447,17.79a22,22,0,0,0,6.37-7.39,2.56,2.56,0,0,1-.54,3.43"/>
  <path class="header-path header-path--3" d="M405.44,53.48l-3,7.67,9.74-10.41a101.19,101.19,0,0,1-5.67,11.92l11.1-11.06a78.23,78.23,0,0,1-5,10.87c3.73-4.47,7.5-9,12-12.64l-6.44,13.7c3.74-4.87,7.53-9.79,12.33-13.62L425,62a78.15,78.15,0,0,0,8.56-11.91L428,64.55c4.85-4.41,6.69-11.91,12.53-14.88L435.7,60.52,442,52a79.19,79.19,0,0,1-4.19,10.3l7-9.43-4.05,10.69a14.18,14.18,0,0,0,4.54-6.41l.29,5.29"/>
  <!--O path-->
  <path class="header-path" d="M513.81,3.62l-3.33,9.74A35.26,35.26,0,0,0,519,2.72L510.86,18A76.65,76.65,0,0,0,523.07,4.25l-7.31,15.25A84.22,84.22,0,0,0,526.4,8.11l-5.11,12.42,11.24-13.4-8.4,17.94,12.15-13.9-7.49,16.1,12.75-12.79L530.82,32l15.24-13.46L533.8,37.46l14.53-12.9L536,42.18,552.95,28.1,537.17,46.64l13.36-8.87L533.81,57.38A94.2,94.2,0,0,1,551.1,47L536.72,63.94a104.18,104.18,0,0,1,16.42-12.72L538.36,69.6l13.1-10.67L535.13,80.16a63,63,0,0,1,16.74-13.9L534.21,89.61l19.47-19.09a178.42,178.42,0,0,1-15.7,22,56.8,56.8,0,0,1,11.08-11.25A107.08,107.08,0,0,1,538,99.82a28.66,28.66,0,0,0,4.47-9.46l-15.6,16,6.42-12a75.77,75.77,0,0,1-10.58,13.8,98.63,98.63,0,0,1,8.51-15.39l-15.19,18A102.1,102.1,0,0,1,527.2,92.39l-16.81,16.14A22.38,22.38,0,0,1,515,99.48a47.49,47.49,0,0,0-8.72,8.16l5.65-8.8L500.2,109.69l9.73-12.92L499.5,107"/>
  <path class="header-path" d="M507.36,110l3.33-9.74a35.26,35.26,0,0,0-8.47,10.63l8.09-15.31a76.65,76.65,0,0,0-12.21,13.78l7.31-15.25a84.22,84.22,0,0,0-10.65,11.38l5.11-12.42-11.24,13.4L497,88.52l-12.15,13.9,7.49-16.1L479.63,99.1l10.72-17.49L475.11,95.08l12.27-18.93L472.85,89l12.33-17.62L468.23,85.5,484,67l-13.36,8.87,16.72-19.61a94.2,94.2,0,0,1-17.29,10.36l14.38-16.92A104.18,104.18,0,0,1,468,62.37L482.82,44l-13.1,10.67L486,33.44a63,63,0,0,1-16.74,13.9L487,24,467.5,43.08a178.42,178.42,0,0,1,15.7-22,56.8,56.8,0,0,1-11.08,11.25,107.08,107.08,0,0,1,11.11-18.58,28.66,28.66,0,0,0-4.47,9.46l15.6-16-6.42,12a75.77,75.77,0,0,1,10.58-13.8A98.63,98.63,0,0,1,490,20.77l15.19-18A102.1,102.1,0,0,1,494,21.2L510.79,5.06a22.38,22.38,0,0,1-4.65,9.06A47.49,47.49,0,0,0,514.85,6l-5.65,8.8L521,3.91l-9.73,12.92L521.68,6.6"/>
  <!--L path-->
  <path class="header-path" d="M574,6.46a5.63,5.63,0,0,0,3.33-2,26.56,26.56,0,0,0-4.83,7.5l7.56-6.23L572.3,18.49,584.43,6.81a61.77,61.77,0,0,0-11.2,14.61L589.1,5.65,572.57,28.3a129.33,129.33,0,0,1,18.07-16.62q-9.18,10.67-17.47,22.08l16.72-16.09Q581,29,573,41.07l15.4-14.9A134.85,134.85,0,0,1,572.8,47l17.66-15.27L576,50.34l12.51-11.78L574.36,57.37,588,45.14,572,65.38l16.75-15.07A164,164,0,0,0,574,70l16.32-15.41L575.69,74.23,589.78,59,573.71,82.33l12.9-12.69L576.14,87.41l12.21-13.29L575.93,94.83l13.38-14.46a158.71,158.71,0,0,1-15.37,21.89l14.14-13.79a80.67,80.67,0,0,1-9.35,14.23,30.76,30.76,0,0,0,9.45-8.1,49.88,49.88,0,0,1-5.42,10.11l7-6.26-4.26,8.47,3.69-3c.26-.21.63-.43.91-.24s-.19.73-.3.41"/>
  <path class="header-path" d="M593,98.5a19.67,19.67,0,0,0-3.62,6.63,66.76,66.76,0,0,0,9.9-10.06c.75.07.67,1.19.36,1.87l-3.88,8.66,8.05-8.46a91.13,91.13,0,0,1-4.6,9.24l10.29-10.27-5,11.42,10.95-10.87A53.92,53.92,0,0,0,609.87,107l10.29-10.82a71.21,71.21,0,0,1-6.28,10.58L626.43,94.5l-7.33,12.09,11.38-10.46-5.84,10,10.75-9.68a39.57,39.57,0,0,0-5.79,10.25A60,60,0,0,1,640,97.56l-5.94,8.85a2.06,2.06,0,0,0,2-1l.93,1"/>
  <!--I path-->
  <path class="header-path" d="M658,6.46a5.63,5.63,0,0,0,3.33-2,26.56,26.56,0,0,0-4.83,7.5l7.56-6.23L656.3,18.49,668.43,6.81a61.77,61.77,0,0,0-11.2,14.61L673.1,5.65,656.57,28.3a129.33,129.33,0,0,1,18.07-16.62q-9.18,10.67-17.47,22.08l16.72-16.09Q665,29,657,41.07l15.4-14.9A134.85,134.85,0,0,1,656.8,47l17.66-15.27L660,50.34l12.51-11.78L658.36,57.37,672,45.14,656,65.38l16.75-15.07A164,164,0,0,0,658,70l16.32-15.41L659.69,74.23,673.78,59,657.71,82.33l12.9-12.69L660.14,87.41l12.21-13.29L659.93,94.83l13.38-14.46a158.71,158.71,0,0,1-15.37,21.89l14.14-13.79a80.67,80.67,0,0,1-9.35,14.23,30.76,30.76,0,0,0,9.45-8.1,49.88,49.88,0,0,1-5.42,10.11l7-6.26-4.26,8.47,3.69-3c.26-.21.63-.43.91-.24s-.19.73-.3.41"/>
  <!--O path-->
  <path class="header-path" d="M741.81,3.62l-3.33,9.74A35.26,35.26,0,0,0,747,2.72L738.86,18A76.65,76.65,0,0,0,751.07,4.25l-7.31,15.25A84.22,84.22,0,0,0,754.4,8.11l-5.11,12.42,11.24-13.4-8.4,17.94,12.15-13.9-7.49,16.1,12.75-12.79L758.82,32l15.24-13.46L761.8,37.46l14.53-12.9L764,42.18,780.95,28.1,765.17,46.64l13.36-8.87L761.81,57.38A94.2,94.2,0,0,1,779.1,47L764.72,63.94a104.18,104.18,0,0,1,16.42-12.72L766.36,69.6l13.1-10.67L763.13,80.16a63,63,0,0,1,16.74-13.9L762.21,89.61l19.47-19.09a178.42,178.42,0,0,1-15.7,22,56.8,56.8,0,0,1,11.08-11.25A107.08,107.08,0,0,1,766,99.82a28.66,28.66,0,0,0,4.47-9.46l-15.6,16,6.42-12a75.77,75.77,0,0,1-10.58,13.8,98.63,98.63,0,0,1,8.51-15.39l-15.19,18A102.1,102.1,0,0,1,755.2,92.39l-16.81,16.14A22.38,22.38,0,0,1,743,99.48a47.49,47.49,0,0,0-8.72,8.16l5.65-8.8L728.2,109.69l9.73-12.92L727.5,107"/>
  <path class="header-path" d="M735.36,110l3.33-9.74a35.26,35.26,0,0,0-8.47,10.63l8.09-15.31a76.65,76.65,0,0,0-12.21,13.78l7.31-15.25a84.22,84.22,0,0,0-10.65,11.38l5.11-12.42-11.24,13.4L725,88.52l-12.15,13.9,7.49-16.1L707.63,99.1l10.72-17.49L703.11,95.08l12.27-18.93L700.85,89l12.33-17.62L696.23,85.5,712,67l-13.36,8.87,16.72-19.61a94.2,94.2,0,0,1-17.29,10.36l14.38-16.92A104.18,104.18,0,0,1,696,62.37L710.82,44l-13.1,10.67L714,33.44a63,63,0,0,1-16.74,13.9L715,24,695.5,43.08a178.42,178.42,0,0,1,15.7-22,56.8,56.8,0,0,1-11.08,11.25,107.08,107.08,0,0,1,11.11-18.58,28.66,28.66,0,0,0-4.47,9.46l15.6-16-6.42,12a75.77,75.77,0,0,1,10.58-13.8A98.63,98.63,0,0,1,718,20.77l15.19-18A102.1,102.1,0,0,1,722,21.2L738.79,5.06a22.38,22.38,0,0,1-4.65,9.06A47.49,47.49,0,0,0,742.85,6l-5.65,8.8L749,3.91l-9.73,12.92L749.68,6.6"/>
</svg>
