<svg id="Layer_1" data-name="Layer 1" xmlns="http://www.w3.org/2000/svg" viewBox="0 0 80.89 105.08"><defs><style>.cls-1{fill:none;stroke:#fff;stroke-linecap:round;stroke-linejoin:round;stroke-width:2px;}</style></defs><title>R</title><path class="cls-1" d="M204,6.46a5.63,5.63,0,0,0,3.33-2,26.56,26.56,0,0,0-4.83,7.5l7.56-6.23L202.3,18.49,214.43,6.81a61.77,61.77,0,0,0-11.2,14.61L219.1,5.65,202.57,28.3a129.33,129.33,0,0,1,18.07-16.62q-9.18,10.67-17.47,22.08l16.72-16.09Q211,29,203,41.07l15.4-14.9A134.85,134.85,0,0,1,202.8,47l17.66-15.27L206,50.34l12.51-11.78L204.36,57.37,218,45.14,202,65.38l16.75-15.07A164,164,0,0,0,204,70l16.32-15.41L205.69,74.23,219.78,59,203.71,82.33l12.9-12.69L206.14,87.41l12.21-13.29L205.93,94.83l13.38-14.46a158.71,158.71,0,0,1-15.37,21.89l14.14-13.79a80.67,80.67,0,0,1-9.35,14.23,30.76,30.76,0,0,0,9.45-8.1,49.88,49.88,0,0,1-5.42,10.11l7-6.26-4.26,8.47,3.69-3c.26-.21.63-.43.91-.24s-.19.73-.3.41" transform="translate(-200.98 -3.5)"/><path class="cls-1" d="M224,5.5a14,14,0,0,0-3.22,5,26.79,26.79,0,0,0,7.5-5.64l-6.13,10.93L232.4,6.29l-7.11,10.13L236.8,6A30.11,30.11,0,0,1,230,17.75L242.27,6.63l-7.81,12L246.15,6.81a52.85,52.85,0,0,1-7,11.64l13.17-11L245.79,17l9.14-7.56-5.67,9,10.63-7.12-7,10.84,10.56-8.52-7,11.7a83.1,83.1,0,0,1,12.46-9.4l-9.27,11.79L268,20.65l-8.72,12.18L272,23.71a92.43,92.43,0,0,1-12.84,14.75l13.44-8.82L260.61,44.12,273.8,33.82,260.69,49l11.8-8.43L257.7,59.13l8.21-9.84L253.82,63.22l6.27-15.12-13.3,16.14a100.53,100.53,0,0,1,6.8-14.76,113.79,113.79,0,0,1-11.37,11.79l5.51-9.15L238,62l2.15-5.34a33,33,0,0,1-7.89,8.49l1.86-8a31.41,31.41,0,0,0-8.54,7.9l3.13-7.47a27,27,0,0,0-6.94,6.4,29.84,29.84,0,0,0,2.8-8,14.62,14.62,0,0,0-5.14,4.09,109.91,109.91,0,0,0,11.93-7.76L226.74,63l15.34-11.55a15.37,15.37,0,0,1-2.85,9.71l7.3-4.9L244.71,63a44.36,44.36,0,0,0,8.16-5.53l-4.17,9.26,7.81-5.56-2,7,7.69-5.87a18.88,18.88,0,0,1-6.08,10.11l9.61-8.54-5.44,8.87,5.54-5-6.17,9.65a87.66,87.66,0,0,1,13.46-8.68L260,83.37l15.32-11.06L260.77,90,276.87,78,261.26,96.68l15-12.36a111.49,111.49,0,0,0-12.66,17.38l14.44-12.12L263.83,106.7a56.85,56.85,0,0,0,14.3-11.35l-6.35,8.84,7.1-4.94a43.51,43.51,0,0,1-6.15,8.33,19.66,19.66,0,0,0,6.07-4.37l-.28,2.55a1.46,1.46,0,0,1,2.29,1.39" transform="translate(-200.98 -3.5)"/></svg>