<svg id="Layer_1" data-name="Layer 1" xmlns="http://www.w3.org/2000/svg" viewBox="0 0 77.8 104.41"><defs><style>.cls-1{fill:none;stroke:#fff;stroke-linecap:round;stroke-linejoin:round;stroke-width:2px;}</style></defs><title>T</title><path class="cls-1" d="M322,20.68A5.88,5.88,0,0,0,325.32,19a22.74,22.74,0,0,0-4.83,6.44l7.56-5.35L320.3,31l12.13-10a54.84,54.84,0,0,0-11.2,12.54L337.1,20,320.57,39.43a124.23,124.23,0,0,1,18.07-14.27q-9.18,9.16-17.47,19L337.89,30.3Q329,40,321,50.39l15.4-12.79A119.14,119.14,0,0,1,320.8,55.51L338.45,42.4,324,58.35l12.51-10.11L322.36,64.38,336,53.88,320,71.26l16.75-12.94A144.83,144.83,0,0,0,322,75.2L338.33,62,323.69,78.86l14.09-13.1L321.71,85.81l12.9-10.89L324.14,90.17l12.21-11.41L323.93,96.54l13.38-12.41a138.26,138.26,0,0,1-15.37,18.79l14.14-11.84a69.32,69.32,0,0,1-9.35,12.21,30,30,0,0,0,9.45-7,41.26,41.26,0,0,1-5.42,8.68l7-5.38-4.26,7.27,3.69-2.55c.26-.18.63-.37.91-.21s-.19.62-.3.35" transform="translate(-289.39 -3.51)"/><path class="cls-1" d="M293,4.51l-2.42,7.37a27.4,27.4,0,0,0,6.83-6.27l-7,11.15a49.25,49.25,0,0,0,9.74-10A104,104,0,0,1,295.18,18L305.45,7.16l-5.39,11.76A103.38,103.38,0,0,0,310.52,6.11L304.9,18.73A113.44,113.44,0,0,0,315,7.09l-3.12,11.45A50.1,50.1,0,0,1,320.32,8a46.5,46.5,0,0,0-4.53,11.67,44.68,44.68,0,0,1,11-12.39L322,18.67a46.74,46.74,0,0,1,13.62-13l-6.81,13.14L338.65,8.1l-5.5,12.19A53.47,53.47,0,0,1,347.25,7l-7,12.45L353.22,7.7A39.54,39.54,0,0,0,348,18.18,59,59,0,0,1,360,6.95l-4.77,8.93L363,7.06l-4.86,9.55,7.4-7.49a26.28,26.28,0,0,0-2.91,7.4l3.52-3.4a5.44,5.44,0,0,1-1.7,4.33" transform="translate(-289.39 -3.51)"/></svg>