<svg xmlns="http://www.w3.org/2000/svg" id="Layer_1" data-name="Layer 1" viewBox="0 0 100 100"><defs><style>.cls-1{fill:none;stroke:#000;stroke-linecap:round;stroke-linejoin:round;stroke-width:2.08px;}</style></defs><path d="M5 13.74A27.89 27.89 0 0 1 .76 22l10.54-7.44a49.76 49.76 0 0 0-9.41 10l13.37-11.27L.42 31.25a158.49 158.49 0 0 1 21-19.77L1.75 34.89A175.73 175.73 0 0 1 24.6 16 202.55 202.55 0 0 0 3.4 41.69a170.5 170.5 0 0 1 25.35-23.34 186.53 186.53 0 0 0-25 32 108 108 0 0 1 31.34-28.8l-32 33.56A126.75 126.75 0 0 1 40.9 22.3C29.95 36.7 14.08 46.74 3.09 61.1a131.63 131.63 0 0 1 27.54-22.66q-15.36 15.4-29.48 32A159.68 159.68 0 0 1 37.74 41L3.19 77c14.3-12.21 28.75-24.46 45.29-33.35Q35.13 57.81 21 71.18a173.91 173.91 0 0 1 22.13-18.41 30.94 30.94 0 0 1-10 8.42M63.25 15.35l2.24-.35-9 9.09Q64 18.3 72 13.25L56.35 29.54a249.77 249.77 0 0 1 22.13-15.47 170.83 170.83 0 0 0-20.72 18.47 214.72 214.72 0 0 1 23.35-17.2l-22.45 22C68.64 27.84 79 18.09 92 13.5L59 44c11.3-10.14 22.85-20.43 36.69-26.67a312.78 312.78 0 0 0-37.12 35.76A162.15 162.15 0 0 1 97.59 24a402.25 402.25 0 0 0-35.93 32.48 112 112 0 0 1 33.68-23.63L61.9 62.67C73.87 53 86 43.29 100 37L62.78 70.7a147.65 147.65 0 0 1 34.88-23.1Q78.28 61.47 59.73 76.44a239.58 239.58 0 0 1 40-21.87L84.66 64.66c-5.39 3.61-10.85 7.27-15.19 12.1L95.26 60" class="cls-1"/></svg>