<svg xmlns="http://www.w3.org/2000/svg" id="Layer_1" data-name="Layer 1" viewBox="0 0 100 100"><defs><style>.cls-1{fill:#fff;}</style></defs><path d="M1.54 16C.82 36.78.57 57.62.16 78.46l1.24 1.29C.71 57.15.07 34.42 4 12.06l-1.18-1.23C3 35.08 3 59.32 3.08 83.57c0 .61 1.44 1.74 1.44 1.5-.15-24.34-.41-48.67-.52-73 0-.38-1.12-1.59-1.19-1.23C-1.16 33.15-.54 55.89.16 78.46c0 .48 1.23 1.53 1.24 1.29.37-21 .9-42 1-62.93 0-.33-.82-1-.83-.86zM.37 91.79c15-8.22 28.7-18.26 42.06-28.83.36-.29-.94-1.94-1.34-1.65-10.28 7.57-20.45 15.29-30.64 23L11.83 86c8.6-6.9 17.81-12.61 27.24-18.28.32-.19-.78-1.74-1.23-1.52C28.08 71 19 77.51 10.46 84.28c-.37.29 1 2 1.37 1.69 10.22-7.65 20.47-15.26 30.6-23l-1.33-1.66C28.3 72.5 14.09 82-.37 90.87c-.19.12.48 1.06.74.92zM3 10.12c13.11-.14 26.15.23 39.23 1.21.27 0-.48-1.37-1-1.41a234.29 234.29 0 0 0-38.85-.75c-.22 0 .34.95.64.95z" class="cls-1"/><path d="M41.37 12.91c-.36 9.47.13 19 .28 28.5s.3 19.14.48 28.7l1.45 1.38c-1-10.78.52-21.53.63-32.31a71.84 71.84 0 0 0-1.13-14.52c-1.08-5.37-3.24-10.5-2.69-16.08.05-.58-1.32-1.73-1.39-1.41-.63 5 1.12 9.66 2.24 14.45a69.28 69.28 0 0 1 1.49 17c-.19 10.55-1.6 21.07-.62 31.63 0 .51 1.46 1.65 1.45 1.38-.19-9.79-.43-19.58-.64-29.36-.21-9.53-.14-19.13-.82-28.64 0-.25-.76-.89-.76-.72zM58.25 16q.13 18.44.78 36.88c.42 12.07.7 24.22 1.79 36.25 0 .24.7.8.7.67-.19-12.11-1.05-24.22-1.47-36.32S59.3 29 59 16.79c0-.32-.78-.94-.77-.81z" class="cls-1"/><path d="M60.6 93q-2.06-19.22-3-38.56-.51-10-.69-20.11c-.06-3.28-.11-6.57-.1-9.85 0-2.06-.6-6.66 2.33-7.05l-.77-1c.42 11.94.71 23.85.46 35.8s-1.13 24-2 36.06c0 .36.91 1.19.93 1a369.26 369.26 0 0 0 1.49-72c0-.22-.5-.95-.77-.88-2 .51-2.28 2.59-2.35 4.38-.13 3.27 0 6.59.06 9.86q.12 10.13.6 20.24c.67 14 1.91 28 3.63 41.91 0 .08.24.3.23.2z" class="cls-1"/><path d="M60.26 89.89Q76.75 76 93.13 62c.34-.29-.85-1.79-1.27-1.57C79.85 66.76 72.78 79 62 86.93l1.27 1.57q7.59-6.07 15.44-11.78C84 72.91 89.44 69.4 94.57 65.46c.26-.2-.64-1.37-1-1.19C82.41 70.6 72.08 78.94 62 86.93c-.34.27.9 1.85 1.27 1.57C74.06 80.57 81.18 68.38 93.13 62l-1.27-1.57Q75.58 74.56 59.4 88.83c-.23.21.63 1.26.86 1.06zM56.8 10.09a149.87 149.87 0 0 1 29.3-2.25l-.94-1.39c-10 1.38-20.1 2-30.2 2.59-.32 0 .49 1.38.93 1.38 14.14-.07 28.29 0 42.43-.12.32 0-.51-1.51-1-1.51C83.18 8.79 69.07 9 55 9l.93 1.38C66 9.86 76.09 9.32 86.1 7.84c.38-.06-.54-1.39-.94-1.39a137.63 137.63 0 0 0-29 2.72c-.24 0 .35 1 .63.92zM94.18 11c1.24 15.77 2.65 31.52 1.08 47.32l1.22 1.27a326.45 326.45 0 0 0 .22-43.32c0-.36-1.08-1.4-1.06-.91a343.92 343.92 0 0 1-.39 43c0 .49 1.2 1.54 1.22 1.27 1.63-16 .18-32-1.52-47.92 0-.26-.81-1-.79-.68zM57 12.11a83 83 0 0 1 2.41 16.78c0 .41 1 1.22 1 1a58.75 58.75 0 0 0-2.6-17.19c-.07-.22-.91-1-.82-.63z" class="cls-1"/><path d="M99.71 56.11a238.91 238.91 0 0 0-32.39 23.65c-.26.22.7 1.41 1 1.2 10.46-8.35 21.28-16.13 32-24.12.16-.12-.39-.84-.58-.72zM.25 91.67C16.56 82.76 32.88 74 49.61 65.85c.22-.1-.56-1.29-.91-1.13A386.56 386.56 0 0 0-.18 91.14c-.11.07.28.62.43.53z" class="cls-1"/></svg>